G75*
%MOIN*%
%OFA0B0*%
%FSLAX25Y25*%
%IPPOS*%
%LPD*%
%AMOC8*
5,1,8,0,0,1.08239X$1,22.5*
%
%ADD10C,0.00000*%
%ADD11C,0.00600*%
%ADD12C,0.01575*%
%ADD13C,0.00300*%
%ADD14C,0.04000*%
%ADD15C,0.03800*%
D10*
X0002266Y0001000D02*
X0002266Y0126000D01*
X0252266Y0126000D01*
X0252266Y0001000D01*
X0002266Y0001000D01*
X0010140Y0016748D02*
X0010142Y0016941D01*
X0010149Y0017134D01*
X0010161Y0017327D01*
X0010178Y0017520D01*
X0010199Y0017712D01*
X0010225Y0017903D01*
X0010256Y0018094D01*
X0010291Y0018284D01*
X0010331Y0018473D01*
X0010376Y0018661D01*
X0010425Y0018848D01*
X0010479Y0019034D01*
X0010537Y0019218D01*
X0010600Y0019401D01*
X0010668Y0019582D01*
X0010739Y0019761D01*
X0010816Y0019939D01*
X0010896Y0020115D01*
X0010981Y0020288D01*
X0011070Y0020460D01*
X0011163Y0020629D01*
X0011260Y0020796D01*
X0011362Y0020961D01*
X0011467Y0021123D01*
X0011576Y0021282D01*
X0011690Y0021439D01*
X0011807Y0021592D01*
X0011927Y0021743D01*
X0012052Y0021891D01*
X0012180Y0022036D01*
X0012311Y0022177D01*
X0012446Y0022316D01*
X0012585Y0022451D01*
X0012726Y0022582D01*
X0012871Y0022710D01*
X0013019Y0022835D01*
X0013170Y0022955D01*
X0013323Y0023072D01*
X0013480Y0023186D01*
X0013639Y0023295D01*
X0013801Y0023400D01*
X0013966Y0023502D01*
X0014133Y0023599D01*
X0014302Y0023692D01*
X0014474Y0023781D01*
X0014647Y0023866D01*
X0014823Y0023946D01*
X0015001Y0024023D01*
X0015180Y0024094D01*
X0015361Y0024162D01*
X0015544Y0024225D01*
X0015728Y0024283D01*
X0015914Y0024337D01*
X0016101Y0024386D01*
X0016289Y0024431D01*
X0016478Y0024471D01*
X0016668Y0024506D01*
X0016859Y0024537D01*
X0017050Y0024563D01*
X0017242Y0024584D01*
X0017435Y0024601D01*
X0017628Y0024613D01*
X0017821Y0024620D01*
X0018014Y0024622D01*
X0018207Y0024620D01*
X0018400Y0024613D01*
X0018593Y0024601D01*
X0018786Y0024584D01*
X0018978Y0024563D01*
X0019169Y0024537D01*
X0019360Y0024506D01*
X0019550Y0024471D01*
X0019739Y0024431D01*
X0019927Y0024386D01*
X0020114Y0024337D01*
X0020300Y0024283D01*
X0020484Y0024225D01*
X0020667Y0024162D01*
X0020848Y0024094D01*
X0021027Y0024023D01*
X0021205Y0023946D01*
X0021381Y0023866D01*
X0021554Y0023781D01*
X0021726Y0023692D01*
X0021895Y0023599D01*
X0022062Y0023502D01*
X0022227Y0023400D01*
X0022389Y0023295D01*
X0022548Y0023186D01*
X0022705Y0023072D01*
X0022858Y0022955D01*
X0023009Y0022835D01*
X0023157Y0022710D01*
X0023302Y0022582D01*
X0023443Y0022451D01*
X0023582Y0022316D01*
X0023717Y0022177D01*
X0023848Y0022036D01*
X0023976Y0021891D01*
X0024101Y0021743D01*
X0024221Y0021592D01*
X0024338Y0021439D01*
X0024452Y0021282D01*
X0024561Y0021123D01*
X0024666Y0020961D01*
X0024768Y0020796D01*
X0024865Y0020629D01*
X0024958Y0020460D01*
X0025047Y0020288D01*
X0025132Y0020115D01*
X0025212Y0019939D01*
X0025289Y0019761D01*
X0025360Y0019582D01*
X0025428Y0019401D01*
X0025491Y0019218D01*
X0025549Y0019034D01*
X0025603Y0018848D01*
X0025652Y0018661D01*
X0025697Y0018473D01*
X0025737Y0018284D01*
X0025772Y0018094D01*
X0025803Y0017903D01*
X0025829Y0017712D01*
X0025850Y0017520D01*
X0025867Y0017327D01*
X0025879Y0017134D01*
X0025886Y0016941D01*
X0025888Y0016748D01*
X0025886Y0016555D01*
X0025879Y0016362D01*
X0025867Y0016169D01*
X0025850Y0015976D01*
X0025829Y0015784D01*
X0025803Y0015593D01*
X0025772Y0015402D01*
X0025737Y0015212D01*
X0025697Y0015023D01*
X0025652Y0014835D01*
X0025603Y0014648D01*
X0025549Y0014462D01*
X0025491Y0014278D01*
X0025428Y0014095D01*
X0025360Y0013914D01*
X0025289Y0013735D01*
X0025212Y0013557D01*
X0025132Y0013381D01*
X0025047Y0013208D01*
X0024958Y0013036D01*
X0024865Y0012867D01*
X0024768Y0012700D01*
X0024666Y0012535D01*
X0024561Y0012373D01*
X0024452Y0012214D01*
X0024338Y0012057D01*
X0024221Y0011904D01*
X0024101Y0011753D01*
X0023976Y0011605D01*
X0023848Y0011460D01*
X0023717Y0011319D01*
X0023582Y0011180D01*
X0023443Y0011045D01*
X0023302Y0010914D01*
X0023157Y0010786D01*
X0023009Y0010661D01*
X0022858Y0010541D01*
X0022705Y0010424D01*
X0022548Y0010310D01*
X0022389Y0010201D01*
X0022227Y0010096D01*
X0022062Y0009994D01*
X0021895Y0009897D01*
X0021726Y0009804D01*
X0021554Y0009715D01*
X0021381Y0009630D01*
X0021205Y0009550D01*
X0021027Y0009473D01*
X0020848Y0009402D01*
X0020667Y0009334D01*
X0020484Y0009271D01*
X0020300Y0009213D01*
X0020114Y0009159D01*
X0019927Y0009110D01*
X0019739Y0009065D01*
X0019550Y0009025D01*
X0019360Y0008990D01*
X0019169Y0008959D01*
X0018978Y0008933D01*
X0018786Y0008912D01*
X0018593Y0008895D01*
X0018400Y0008883D01*
X0018207Y0008876D01*
X0018014Y0008874D01*
X0017821Y0008876D01*
X0017628Y0008883D01*
X0017435Y0008895D01*
X0017242Y0008912D01*
X0017050Y0008933D01*
X0016859Y0008959D01*
X0016668Y0008990D01*
X0016478Y0009025D01*
X0016289Y0009065D01*
X0016101Y0009110D01*
X0015914Y0009159D01*
X0015728Y0009213D01*
X0015544Y0009271D01*
X0015361Y0009334D01*
X0015180Y0009402D01*
X0015001Y0009473D01*
X0014823Y0009550D01*
X0014647Y0009630D01*
X0014474Y0009715D01*
X0014302Y0009804D01*
X0014133Y0009897D01*
X0013966Y0009994D01*
X0013801Y0010096D01*
X0013639Y0010201D01*
X0013480Y0010310D01*
X0013323Y0010424D01*
X0013170Y0010541D01*
X0013019Y0010661D01*
X0012871Y0010786D01*
X0012726Y0010914D01*
X0012585Y0011045D01*
X0012446Y0011180D01*
X0012311Y0011319D01*
X0012180Y0011460D01*
X0012052Y0011605D01*
X0011927Y0011753D01*
X0011807Y0011904D01*
X0011690Y0012057D01*
X0011576Y0012214D01*
X0011467Y0012373D01*
X0011362Y0012535D01*
X0011260Y0012700D01*
X0011163Y0012867D01*
X0011070Y0013036D01*
X0010981Y0013208D01*
X0010896Y0013381D01*
X0010816Y0013557D01*
X0010739Y0013735D01*
X0010668Y0013914D01*
X0010600Y0014095D01*
X0010537Y0014278D01*
X0010479Y0014462D01*
X0010425Y0014648D01*
X0010376Y0014835D01*
X0010331Y0015023D01*
X0010291Y0015212D01*
X0010256Y0015402D01*
X0010225Y0015593D01*
X0010199Y0015784D01*
X0010178Y0015976D01*
X0010161Y0016169D01*
X0010149Y0016362D01*
X0010142Y0016555D01*
X0010140Y0016748D01*
X0010140Y0110252D02*
X0010142Y0110445D01*
X0010149Y0110638D01*
X0010161Y0110831D01*
X0010178Y0111024D01*
X0010199Y0111216D01*
X0010225Y0111407D01*
X0010256Y0111598D01*
X0010291Y0111788D01*
X0010331Y0111977D01*
X0010376Y0112165D01*
X0010425Y0112352D01*
X0010479Y0112538D01*
X0010537Y0112722D01*
X0010600Y0112905D01*
X0010668Y0113086D01*
X0010739Y0113265D01*
X0010816Y0113443D01*
X0010896Y0113619D01*
X0010981Y0113792D01*
X0011070Y0113964D01*
X0011163Y0114133D01*
X0011260Y0114300D01*
X0011362Y0114465D01*
X0011467Y0114627D01*
X0011576Y0114786D01*
X0011690Y0114943D01*
X0011807Y0115096D01*
X0011927Y0115247D01*
X0012052Y0115395D01*
X0012180Y0115540D01*
X0012311Y0115681D01*
X0012446Y0115820D01*
X0012585Y0115955D01*
X0012726Y0116086D01*
X0012871Y0116214D01*
X0013019Y0116339D01*
X0013170Y0116459D01*
X0013323Y0116576D01*
X0013480Y0116690D01*
X0013639Y0116799D01*
X0013801Y0116904D01*
X0013966Y0117006D01*
X0014133Y0117103D01*
X0014302Y0117196D01*
X0014474Y0117285D01*
X0014647Y0117370D01*
X0014823Y0117450D01*
X0015001Y0117527D01*
X0015180Y0117598D01*
X0015361Y0117666D01*
X0015544Y0117729D01*
X0015728Y0117787D01*
X0015914Y0117841D01*
X0016101Y0117890D01*
X0016289Y0117935D01*
X0016478Y0117975D01*
X0016668Y0118010D01*
X0016859Y0118041D01*
X0017050Y0118067D01*
X0017242Y0118088D01*
X0017435Y0118105D01*
X0017628Y0118117D01*
X0017821Y0118124D01*
X0018014Y0118126D01*
X0018207Y0118124D01*
X0018400Y0118117D01*
X0018593Y0118105D01*
X0018786Y0118088D01*
X0018978Y0118067D01*
X0019169Y0118041D01*
X0019360Y0118010D01*
X0019550Y0117975D01*
X0019739Y0117935D01*
X0019927Y0117890D01*
X0020114Y0117841D01*
X0020300Y0117787D01*
X0020484Y0117729D01*
X0020667Y0117666D01*
X0020848Y0117598D01*
X0021027Y0117527D01*
X0021205Y0117450D01*
X0021381Y0117370D01*
X0021554Y0117285D01*
X0021726Y0117196D01*
X0021895Y0117103D01*
X0022062Y0117006D01*
X0022227Y0116904D01*
X0022389Y0116799D01*
X0022548Y0116690D01*
X0022705Y0116576D01*
X0022858Y0116459D01*
X0023009Y0116339D01*
X0023157Y0116214D01*
X0023302Y0116086D01*
X0023443Y0115955D01*
X0023582Y0115820D01*
X0023717Y0115681D01*
X0023848Y0115540D01*
X0023976Y0115395D01*
X0024101Y0115247D01*
X0024221Y0115096D01*
X0024338Y0114943D01*
X0024452Y0114786D01*
X0024561Y0114627D01*
X0024666Y0114465D01*
X0024768Y0114300D01*
X0024865Y0114133D01*
X0024958Y0113964D01*
X0025047Y0113792D01*
X0025132Y0113619D01*
X0025212Y0113443D01*
X0025289Y0113265D01*
X0025360Y0113086D01*
X0025428Y0112905D01*
X0025491Y0112722D01*
X0025549Y0112538D01*
X0025603Y0112352D01*
X0025652Y0112165D01*
X0025697Y0111977D01*
X0025737Y0111788D01*
X0025772Y0111598D01*
X0025803Y0111407D01*
X0025829Y0111216D01*
X0025850Y0111024D01*
X0025867Y0110831D01*
X0025879Y0110638D01*
X0025886Y0110445D01*
X0025888Y0110252D01*
X0025886Y0110059D01*
X0025879Y0109866D01*
X0025867Y0109673D01*
X0025850Y0109480D01*
X0025829Y0109288D01*
X0025803Y0109097D01*
X0025772Y0108906D01*
X0025737Y0108716D01*
X0025697Y0108527D01*
X0025652Y0108339D01*
X0025603Y0108152D01*
X0025549Y0107966D01*
X0025491Y0107782D01*
X0025428Y0107599D01*
X0025360Y0107418D01*
X0025289Y0107239D01*
X0025212Y0107061D01*
X0025132Y0106885D01*
X0025047Y0106712D01*
X0024958Y0106540D01*
X0024865Y0106371D01*
X0024768Y0106204D01*
X0024666Y0106039D01*
X0024561Y0105877D01*
X0024452Y0105718D01*
X0024338Y0105561D01*
X0024221Y0105408D01*
X0024101Y0105257D01*
X0023976Y0105109D01*
X0023848Y0104964D01*
X0023717Y0104823D01*
X0023582Y0104684D01*
X0023443Y0104549D01*
X0023302Y0104418D01*
X0023157Y0104290D01*
X0023009Y0104165D01*
X0022858Y0104045D01*
X0022705Y0103928D01*
X0022548Y0103814D01*
X0022389Y0103705D01*
X0022227Y0103600D01*
X0022062Y0103498D01*
X0021895Y0103401D01*
X0021726Y0103308D01*
X0021554Y0103219D01*
X0021381Y0103134D01*
X0021205Y0103054D01*
X0021027Y0102977D01*
X0020848Y0102906D01*
X0020667Y0102838D01*
X0020484Y0102775D01*
X0020300Y0102717D01*
X0020114Y0102663D01*
X0019927Y0102614D01*
X0019739Y0102569D01*
X0019550Y0102529D01*
X0019360Y0102494D01*
X0019169Y0102463D01*
X0018978Y0102437D01*
X0018786Y0102416D01*
X0018593Y0102399D01*
X0018400Y0102387D01*
X0018207Y0102380D01*
X0018014Y0102378D01*
X0017821Y0102380D01*
X0017628Y0102387D01*
X0017435Y0102399D01*
X0017242Y0102416D01*
X0017050Y0102437D01*
X0016859Y0102463D01*
X0016668Y0102494D01*
X0016478Y0102529D01*
X0016289Y0102569D01*
X0016101Y0102614D01*
X0015914Y0102663D01*
X0015728Y0102717D01*
X0015544Y0102775D01*
X0015361Y0102838D01*
X0015180Y0102906D01*
X0015001Y0102977D01*
X0014823Y0103054D01*
X0014647Y0103134D01*
X0014474Y0103219D01*
X0014302Y0103308D01*
X0014133Y0103401D01*
X0013966Y0103498D01*
X0013801Y0103600D01*
X0013639Y0103705D01*
X0013480Y0103814D01*
X0013323Y0103928D01*
X0013170Y0104045D01*
X0013019Y0104165D01*
X0012871Y0104290D01*
X0012726Y0104418D01*
X0012585Y0104549D01*
X0012446Y0104684D01*
X0012311Y0104823D01*
X0012180Y0104964D01*
X0012052Y0105109D01*
X0011927Y0105257D01*
X0011807Y0105408D01*
X0011690Y0105561D01*
X0011576Y0105718D01*
X0011467Y0105877D01*
X0011362Y0106039D01*
X0011260Y0106204D01*
X0011163Y0106371D01*
X0011070Y0106540D01*
X0010981Y0106712D01*
X0010896Y0106885D01*
X0010816Y0107061D01*
X0010739Y0107239D01*
X0010668Y0107418D01*
X0010600Y0107599D01*
X0010537Y0107782D01*
X0010479Y0107966D01*
X0010425Y0108152D01*
X0010376Y0108339D01*
X0010331Y0108527D01*
X0010291Y0108716D01*
X0010256Y0108906D01*
X0010225Y0109097D01*
X0010199Y0109288D01*
X0010178Y0109480D01*
X0010161Y0109673D01*
X0010149Y0109866D01*
X0010142Y0110059D01*
X0010140Y0110252D01*
X0228644Y0110252D02*
X0228646Y0110445D01*
X0228653Y0110638D01*
X0228665Y0110831D01*
X0228682Y0111024D01*
X0228703Y0111216D01*
X0228729Y0111407D01*
X0228760Y0111598D01*
X0228795Y0111788D01*
X0228835Y0111977D01*
X0228880Y0112165D01*
X0228929Y0112352D01*
X0228983Y0112538D01*
X0229041Y0112722D01*
X0229104Y0112905D01*
X0229172Y0113086D01*
X0229243Y0113265D01*
X0229320Y0113443D01*
X0229400Y0113619D01*
X0229485Y0113792D01*
X0229574Y0113964D01*
X0229667Y0114133D01*
X0229764Y0114300D01*
X0229866Y0114465D01*
X0229971Y0114627D01*
X0230080Y0114786D01*
X0230194Y0114943D01*
X0230311Y0115096D01*
X0230431Y0115247D01*
X0230556Y0115395D01*
X0230684Y0115540D01*
X0230815Y0115681D01*
X0230950Y0115820D01*
X0231089Y0115955D01*
X0231230Y0116086D01*
X0231375Y0116214D01*
X0231523Y0116339D01*
X0231674Y0116459D01*
X0231827Y0116576D01*
X0231984Y0116690D01*
X0232143Y0116799D01*
X0232305Y0116904D01*
X0232470Y0117006D01*
X0232637Y0117103D01*
X0232806Y0117196D01*
X0232978Y0117285D01*
X0233151Y0117370D01*
X0233327Y0117450D01*
X0233505Y0117527D01*
X0233684Y0117598D01*
X0233865Y0117666D01*
X0234048Y0117729D01*
X0234232Y0117787D01*
X0234418Y0117841D01*
X0234605Y0117890D01*
X0234793Y0117935D01*
X0234982Y0117975D01*
X0235172Y0118010D01*
X0235363Y0118041D01*
X0235554Y0118067D01*
X0235746Y0118088D01*
X0235939Y0118105D01*
X0236132Y0118117D01*
X0236325Y0118124D01*
X0236518Y0118126D01*
X0236711Y0118124D01*
X0236904Y0118117D01*
X0237097Y0118105D01*
X0237290Y0118088D01*
X0237482Y0118067D01*
X0237673Y0118041D01*
X0237864Y0118010D01*
X0238054Y0117975D01*
X0238243Y0117935D01*
X0238431Y0117890D01*
X0238618Y0117841D01*
X0238804Y0117787D01*
X0238988Y0117729D01*
X0239171Y0117666D01*
X0239352Y0117598D01*
X0239531Y0117527D01*
X0239709Y0117450D01*
X0239885Y0117370D01*
X0240058Y0117285D01*
X0240230Y0117196D01*
X0240399Y0117103D01*
X0240566Y0117006D01*
X0240731Y0116904D01*
X0240893Y0116799D01*
X0241052Y0116690D01*
X0241209Y0116576D01*
X0241362Y0116459D01*
X0241513Y0116339D01*
X0241661Y0116214D01*
X0241806Y0116086D01*
X0241947Y0115955D01*
X0242086Y0115820D01*
X0242221Y0115681D01*
X0242352Y0115540D01*
X0242480Y0115395D01*
X0242605Y0115247D01*
X0242725Y0115096D01*
X0242842Y0114943D01*
X0242956Y0114786D01*
X0243065Y0114627D01*
X0243170Y0114465D01*
X0243272Y0114300D01*
X0243369Y0114133D01*
X0243462Y0113964D01*
X0243551Y0113792D01*
X0243636Y0113619D01*
X0243716Y0113443D01*
X0243793Y0113265D01*
X0243864Y0113086D01*
X0243932Y0112905D01*
X0243995Y0112722D01*
X0244053Y0112538D01*
X0244107Y0112352D01*
X0244156Y0112165D01*
X0244201Y0111977D01*
X0244241Y0111788D01*
X0244276Y0111598D01*
X0244307Y0111407D01*
X0244333Y0111216D01*
X0244354Y0111024D01*
X0244371Y0110831D01*
X0244383Y0110638D01*
X0244390Y0110445D01*
X0244392Y0110252D01*
X0244390Y0110059D01*
X0244383Y0109866D01*
X0244371Y0109673D01*
X0244354Y0109480D01*
X0244333Y0109288D01*
X0244307Y0109097D01*
X0244276Y0108906D01*
X0244241Y0108716D01*
X0244201Y0108527D01*
X0244156Y0108339D01*
X0244107Y0108152D01*
X0244053Y0107966D01*
X0243995Y0107782D01*
X0243932Y0107599D01*
X0243864Y0107418D01*
X0243793Y0107239D01*
X0243716Y0107061D01*
X0243636Y0106885D01*
X0243551Y0106712D01*
X0243462Y0106540D01*
X0243369Y0106371D01*
X0243272Y0106204D01*
X0243170Y0106039D01*
X0243065Y0105877D01*
X0242956Y0105718D01*
X0242842Y0105561D01*
X0242725Y0105408D01*
X0242605Y0105257D01*
X0242480Y0105109D01*
X0242352Y0104964D01*
X0242221Y0104823D01*
X0242086Y0104684D01*
X0241947Y0104549D01*
X0241806Y0104418D01*
X0241661Y0104290D01*
X0241513Y0104165D01*
X0241362Y0104045D01*
X0241209Y0103928D01*
X0241052Y0103814D01*
X0240893Y0103705D01*
X0240731Y0103600D01*
X0240566Y0103498D01*
X0240399Y0103401D01*
X0240230Y0103308D01*
X0240058Y0103219D01*
X0239885Y0103134D01*
X0239709Y0103054D01*
X0239531Y0102977D01*
X0239352Y0102906D01*
X0239171Y0102838D01*
X0238988Y0102775D01*
X0238804Y0102717D01*
X0238618Y0102663D01*
X0238431Y0102614D01*
X0238243Y0102569D01*
X0238054Y0102529D01*
X0237864Y0102494D01*
X0237673Y0102463D01*
X0237482Y0102437D01*
X0237290Y0102416D01*
X0237097Y0102399D01*
X0236904Y0102387D01*
X0236711Y0102380D01*
X0236518Y0102378D01*
X0236325Y0102380D01*
X0236132Y0102387D01*
X0235939Y0102399D01*
X0235746Y0102416D01*
X0235554Y0102437D01*
X0235363Y0102463D01*
X0235172Y0102494D01*
X0234982Y0102529D01*
X0234793Y0102569D01*
X0234605Y0102614D01*
X0234418Y0102663D01*
X0234232Y0102717D01*
X0234048Y0102775D01*
X0233865Y0102838D01*
X0233684Y0102906D01*
X0233505Y0102977D01*
X0233327Y0103054D01*
X0233151Y0103134D01*
X0232978Y0103219D01*
X0232806Y0103308D01*
X0232637Y0103401D01*
X0232470Y0103498D01*
X0232305Y0103600D01*
X0232143Y0103705D01*
X0231984Y0103814D01*
X0231827Y0103928D01*
X0231674Y0104045D01*
X0231523Y0104165D01*
X0231375Y0104290D01*
X0231230Y0104418D01*
X0231089Y0104549D01*
X0230950Y0104684D01*
X0230815Y0104823D01*
X0230684Y0104964D01*
X0230556Y0105109D01*
X0230431Y0105257D01*
X0230311Y0105408D01*
X0230194Y0105561D01*
X0230080Y0105718D01*
X0229971Y0105877D01*
X0229866Y0106039D01*
X0229764Y0106204D01*
X0229667Y0106371D01*
X0229574Y0106540D01*
X0229485Y0106712D01*
X0229400Y0106885D01*
X0229320Y0107061D01*
X0229243Y0107239D01*
X0229172Y0107418D01*
X0229104Y0107599D01*
X0229041Y0107782D01*
X0228983Y0107966D01*
X0228929Y0108152D01*
X0228880Y0108339D01*
X0228835Y0108527D01*
X0228795Y0108716D01*
X0228760Y0108906D01*
X0228729Y0109097D01*
X0228703Y0109288D01*
X0228682Y0109480D01*
X0228665Y0109673D01*
X0228653Y0109866D01*
X0228646Y0110059D01*
X0228644Y0110252D01*
X0230613Y0047063D02*
X0230615Y0047256D01*
X0230622Y0047449D01*
X0230634Y0047642D01*
X0230651Y0047835D01*
X0230672Y0048027D01*
X0230698Y0048218D01*
X0230729Y0048409D01*
X0230764Y0048599D01*
X0230804Y0048788D01*
X0230849Y0048976D01*
X0230898Y0049163D01*
X0230952Y0049349D01*
X0231010Y0049533D01*
X0231073Y0049716D01*
X0231141Y0049897D01*
X0231212Y0050076D01*
X0231289Y0050254D01*
X0231369Y0050430D01*
X0231454Y0050603D01*
X0231543Y0050775D01*
X0231636Y0050944D01*
X0231733Y0051111D01*
X0231835Y0051276D01*
X0231940Y0051438D01*
X0232049Y0051597D01*
X0232163Y0051754D01*
X0232280Y0051907D01*
X0232400Y0052058D01*
X0232525Y0052206D01*
X0232653Y0052351D01*
X0232784Y0052492D01*
X0232919Y0052631D01*
X0233058Y0052766D01*
X0233199Y0052897D01*
X0233344Y0053025D01*
X0233492Y0053150D01*
X0233643Y0053270D01*
X0233796Y0053387D01*
X0233953Y0053501D01*
X0234112Y0053610D01*
X0234274Y0053715D01*
X0234439Y0053817D01*
X0234606Y0053914D01*
X0234775Y0054007D01*
X0234947Y0054096D01*
X0235120Y0054181D01*
X0235296Y0054261D01*
X0235474Y0054338D01*
X0235653Y0054409D01*
X0235834Y0054477D01*
X0236017Y0054540D01*
X0236201Y0054598D01*
X0236387Y0054652D01*
X0236574Y0054701D01*
X0236762Y0054746D01*
X0236951Y0054786D01*
X0237141Y0054821D01*
X0237332Y0054852D01*
X0237523Y0054878D01*
X0237715Y0054899D01*
X0237908Y0054916D01*
X0238101Y0054928D01*
X0238294Y0054935D01*
X0238487Y0054937D01*
X0238680Y0054935D01*
X0238873Y0054928D01*
X0239066Y0054916D01*
X0239259Y0054899D01*
X0239451Y0054878D01*
X0239642Y0054852D01*
X0239833Y0054821D01*
X0240023Y0054786D01*
X0240212Y0054746D01*
X0240400Y0054701D01*
X0240587Y0054652D01*
X0240773Y0054598D01*
X0240957Y0054540D01*
X0241140Y0054477D01*
X0241321Y0054409D01*
X0241500Y0054338D01*
X0241678Y0054261D01*
X0241854Y0054181D01*
X0242027Y0054096D01*
X0242199Y0054007D01*
X0242368Y0053914D01*
X0242535Y0053817D01*
X0242700Y0053715D01*
X0242862Y0053610D01*
X0243021Y0053501D01*
X0243178Y0053387D01*
X0243331Y0053270D01*
X0243482Y0053150D01*
X0243630Y0053025D01*
X0243775Y0052897D01*
X0243916Y0052766D01*
X0244055Y0052631D01*
X0244190Y0052492D01*
X0244321Y0052351D01*
X0244449Y0052206D01*
X0244574Y0052058D01*
X0244694Y0051907D01*
X0244811Y0051754D01*
X0244925Y0051597D01*
X0245034Y0051438D01*
X0245139Y0051276D01*
X0245241Y0051111D01*
X0245338Y0050944D01*
X0245431Y0050775D01*
X0245520Y0050603D01*
X0245605Y0050430D01*
X0245685Y0050254D01*
X0245762Y0050076D01*
X0245833Y0049897D01*
X0245901Y0049716D01*
X0245964Y0049533D01*
X0246022Y0049349D01*
X0246076Y0049163D01*
X0246125Y0048976D01*
X0246170Y0048788D01*
X0246210Y0048599D01*
X0246245Y0048409D01*
X0246276Y0048218D01*
X0246302Y0048027D01*
X0246323Y0047835D01*
X0246340Y0047642D01*
X0246352Y0047449D01*
X0246359Y0047256D01*
X0246361Y0047063D01*
X0246359Y0046870D01*
X0246352Y0046677D01*
X0246340Y0046484D01*
X0246323Y0046291D01*
X0246302Y0046099D01*
X0246276Y0045908D01*
X0246245Y0045717D01*
X0246210Y0045527D01*
X0246170Y0045338D01*
X0246125Y0045150D01*
X0246076Y0044963D01*
X0246022Y0044777D01*
X0245964Y0044593D01*
X0245901Y0044410D01*
X0245833Y0044229D01*
X0245762Y0044050D01*
X0245685Y0043872D01*
X0245605Y0043696D01*
X0245520Y0043523D01*
X0245431Y0043351D01*
X0245338Y0043182D01*
X0245241Y0043015D01*
X0245139Y0042850D01*
X0245034Y0042688D01*
X0244925Y0042529D01*
X0244811Y0042372D01*
X0244694Y0042219D01*
X0244574Y0042068D01*
X0244449Y0041920D01*
X0244321Y0041775D01*
X0244190Y0041634D01*
X0244055Y0041495D01*
X0243916Y0041360D01*
X0243775Y0041229D01*
X0243630Y0041101D01*
X0243482Y0040976D01*
X0243331Y0040856D01*
X0243178Y0040739D01*
X0243021Y0040625D01*
X0242862Y0040516D01*
X0242700Y0040411D01*
X0242535Y0040309D01*
X0242368Y0040212D01*
X0242199Y0040119D01*
X0242027Y0040030D01*
X0241854Y0039945D01*
X0241678Y0039865D01*
X0241500Y0039788D01*
X0241321Y0039717D01*
X0241140Y0039649D01*
X0240957Y0039586D01*
X0240773Y0039528D01*
X0240587Y0039474D01*
X0240400Y0039425D01*
X0240212Y0039380D01*
X0240023Y0039340D01*
X0239833Y0039305D01*
X0239642Y0039274D01*
X0239451Y0039248D01*
X0239259Y0039227D01*
X0239066Y0039210D01*
X0238873Y0039198D01*
X0238680Y0039191D01*
X0238487Y0039189D01*
X0238294Y0039191D01*
X0238101Y0039198D01*
X0237908Y0039210D01*
X0237715Y0039227D01*
X0237523Y0039248D01*
X0237332Y0039274D01*
X0237141Y0039305D01*
X0236951Y0039340D01*
X0236762Y0039380D01*
X0236574Y0039425D01*
X0236387Y0039474D01*
X0236201Y0039528D01*
X0236017Y0039586D01*
X0235834Y0039649D01*
X0235653Y0039717D01*
X0235474Y0039788D01*
X0235296Y0039865D01*
X0235120Y0039945D01*
X0234947Y0040030D01*
X0234775Y0040119D01*
X0234606Y0040212D01*
X0234439Y0040309D01*
X0234274Y0040411D01*
X0234112Y0040516D01*
X0233953Y0040625D01*
X0233796Y0040739D01*
X0233643Y0040856D01*
X0233492Y0040976D01*
X0233344Y0041101D01*
X0233199Y0041229D01*
X0233058Y0041360D01*
X0232919Y0041495D01*
X0232784Y0041634D01*
X0232653Y0041775D01*
X0232525Y0041920D01*
X0232400Y0042068D01*
X0232280Y0042219D01*
X0232163Y0042372D01*
X0232049Y0042529D01*
X0231940Y0042688D01*
X0231835Y0042850D01*
X0231733Y0043015D01*
X0231636Y0043182D01*
X0231543Y0043351D01*
X0231454Y0043523D01*
X0231369Y0043696D01*
X0231289Y0043872D01*
X0231212Y0044050D01*
X0231141Y0044229D01*
X0231073Y0044410D01*
X0231010Y0044593D01*
X0230952Y0044777D01*
X0230898Y0044963D01*
X0230849Y0045150D01*
X0230804Y0045338D01*
X0230764Y0045527D01*
X0230729Y0045717D01*
X0230698Y0045908D01*
X0230672Y0046099D01*
X0230651Y0046291D01*
X0230634Y0046484D01*
X0230622Y0046677D01*
X0230615Y0046870D01*
X0230613Y0047063D01*
D11*
X0147781Y0113898D02*
X0147781Y0120298D01*
X0144225Y0113898D01*
X0144225Y0120298D01*
X0139644Y0120298D02*
X0137510Y0113898D01*
X0138044Y0115498D02*
X0141244Y0115498D01*
X0141777Y0113898D02*
X0139644Y0120298D01*
X0134979Y0120298D02*
X0133201Y0120298D01*
X0133201Y0120299D02*
X0133118Y0120297D01*
X0133035Y0120291D01*
X0132952Y0120281D01*
X0132869Y0120268D01*
X0132788Y0120250D01*
X0132707Y0120229D01*
X0132628Y0120204D01*
X0132550Y0120175D01*
X0132473Y0120143D01*
X0132398Y0120107D01*
X0132324Y0120068D01*
X0132253Y0120025D01*
X0132183Y0119979D01*
X0132116Y0119929D01*
X0132051Y0119877D01*
X0131989Y0119822D01*
X0131929Y0119763D01*
X0131872Y0119702D01*
X0131818Y0119639D01*
X0131767Y0119573D01*
X0131720Y0119504D01*
X0131675Y0119434D01*
X0131634Y0119361D01*
X0131597Y0119287D01*
X0131562Y0119211D01*
X0131532Y0119133D01*
X0131505Y0119055D01*
X0131482Y0118974D01*
X0131462Y0118893D01*
X0131447Y0118811D01*
X0131435Y0118729D01*
X0131427Y0118646D01*
X0131423Y0118563D01*
X0131423Y0118479D01*
X0131427Y0118396D01*
X0131435Y0118313D01*
X0131447Y0118231D01*
X0131462Y0118149D01*
X0131482Y0118068D01*
X0131505Y0117987D01*
X0131532Y0117909D01*
X0131562Y0117831D01*
X0131597Y0117755D01*
X0131634Y0117681D01*
X0131675Y0117608D01*
X0131720Y0117538D01*
X0131767Y0117469D01*
X0131818Y0117403D01*
X0131872Y0117340D01*
X0131929Y0117279D01*
X0131989Y0117220D01*
X0132051Y0117165D01*
X0132116Y0117113D01*
X0132183Y0117063D01*
X0132253Y0117017D01*
X0132324Y0116974D01*
X0132398Y0116935D01*
X0132473Y0116899D01*
X0132550Y0116867D01*
X0132628Y0116838D01*
X0132707Y0116813D01*
X0132788Y0116792D01*
X0132869Y0116774D01*
X0132952Y0116761D01*
X0133035Y0116751D01*
X0133118Y0116745D01*
X0133201Y0116743D01*
X0134979Y0116743D01*
X0134979Y0113898D02*
X0134979Y0120298D01*
X0129059Y0116387D02*
X0124792Y0116387D01*
X0121961Y0115498D02*
X0118761Y0115498D01*
X0118228Y0113898D02*
X0120361Y0120298D01*
X0122494Y0113898D01*
X0115834Y0114965D02*
X0115834Y0118165D01*
X0112990Y0118165D02*
X0112990Y0113898D01*
X0114768Y0113898D01*
X0114832Y0113900D01*
X0114897Y0113906D01*
X0114960Y0113915D01*
X0115023Y0113929D01*
X0115085Y0113946D01*
X0115146Y0113967D01*
X0115206Y0113992D01*
X0115264Y0114020D01*
X0115320Y0114052D01*
X0115374Y0114087D01*
X0115426Y0114125D01*
X0115476Y0114166D01*
X0115522Y0114211D01*
X0115567Y0114257D01*
X0115608Y0114307D01*
X0115646Y0114359D01*
X0115681Y0114413D01*
X0115713Y0114469D01*
X0115741Y0114527D01*
X0115766Y0114587D01*
X0115787Y0114648D01*
X0115804Y0114710D01*
X0115818Y0114773D01*
X0115827Y0114836D01*
X0115833Y0114901D01*
X0115835Y0114965D01*
X0110095Y0114965D02*
X0110095Y0120298D01*
X0110806Y0118165D02*
X0108673Y0118165D01*
X0106398Y0116743D02*
X0106398Y0115321D01*
X0106396Y0115247D01*
X0106390Y0115172D01*
X0106380Y0115099D01*
X0106367Y0115025D01*
X0106350Y0114953D01*
X0106328Y0114882D01*
X0106304Y0114811D01*
X0106275Y0114743D01*
X0106243Y0114675D01*
X0106207Y0114610D01*
X0106169Y0114547D01*
X0106126Y0114485D01*
X0106081Y0114426D01*
X0106033Y0114369D01*
X0105982Y0114315D01*
X0105928Y0114264D01*
X0105871Y0114216D01*
X0105812Y0114171D01*
X0105750Y0114128D01*
X0105687Y0114090D01*
X0105622Y0114054D01*
X0105554Y0114022D01*
X0105486Y0113993D01*
X0105415Y0113969D01*
X0105344Y0113947D01*
X0105272Y0113930D01*
X0105198Y0113917D01*
X0105125Y0113907D01*
X0105050Y0113901D01*
X0104976Y0113899D01*
X0104902Y0113901D01*
X0104827Y0113907D01*
X0104754Y0113917D01*
X0104680Y0113930D01*
X0104608Y0113947D01*
X0104537Y0113969D01*
X0104466Y0113993D01*
X0104398Y0114022D01*
X0104330Y0114054D01*
X0104265Y0114090D01*
X0104202Y0114128D01*
X0104140Y0114171D01*
X0104081Y0114216D01*
X0104024Y0114264D01*
X0103970Y0114315D01*
X0103919Y0114369D01*
X0103871Y0114426D01*
X0103826Y0114485D01*
X0103783Y0114547D01*
X0103745Y0114610D01*
X0103709Y0114675D01*
X0103677Y0114743D01*
X0103648Y0114811D01*
X0103624Y0114882D01*
X0103602Y0114953D01*
X0103585Y0115025D01*
X0103572Y0115099D01*
X0103562Y0115172D01*
X0103556Y0115247D01*
X0103554Y0115321D01*
X0103554Y0116743D01*
X0103556Y0116817D01*
X0103562Y0116892D01*
X0103572Y0116965D01*
X0103585Y0117039D01*
X0103602Y0117111D01*
X0103624Y0117182D01*
X0103648Y0117253D01*
X0103677Y0117321D01*
X0103709Y0117389D01*
X0103745Y0117454D01*
X0103783Y0117517D01*
X0103826Y0117579D01*
X0103871Y0117638D01*
X0103919Y0117695D01*
X0103970Y0117749D01*
X0104024Y0117800D01*
X0104081Y0117848D01*
X0104140Y0117893D01*
X0104202Y0117936D01*
X0104265Y0117974D01*
X0104330Y0118010D01*
X0104398Y0118042D01*
X0104466Y0118071D01*
X0104537Y0118095D01*
X0104608Y0118117D01*
X0104680Y0118134D01*
X0104754Y0118147D01*
X0104827Y0118157D01*
X0104902Y0118163D01*
X0104976Y0118165D01*
X0105050Y0118163D01*
X0105125Y0118157D01*
X0105198Y0118147D01*
X0105272Y0118134D01*
X0105344Y0118117D01*
X0105415Y0118095D01*
X0105486Y0118071D01*
X0105554Y0118042D01*
X0105622Y0118010D01*
X0105687Y0117974D01*
X0105750Y0117936D01*
X0105812Y0117893D01*
X0105871Y0117848D01*
X0105928Y0117800D01*
X0105982Y0117749D01*
X0106033Y0117695D01*
X0106081Y0117638D01*
X0106126Y0117579D01*
X0106169Y0117517D01*
X0106207Y0117454D01*
X0106243Y0117389D01*
X0106275Y0117321D01*
X0106304Y0117253D01*
X0106328Y0117182D01*
X0106350Y0117111D01*
X0106367Y0117039D01*
X0106380Y0116965D01*
X0106390Y0116892D01*
X0106396Y0116817D01*
X0106398Y0116743D01*
X0109029Y0113898D02*
X0109093Y0113900D01*
X0109158Y0113906D01*
X0109221Y0113915D01*
X0109284Y0113929D01*
X0109346Y0113946D01*
X0109407Y0113967D01*
X0109467Y0113992D01*
X0109525Y0114020D01*
X0109581Y0114052D01*
X0109635Y0114087D01*
X0109687Y0114125D01*
X0109737Y0114166D01*
X0109783Y0114211D01*
X0109828Y0114257D01*
X0109869Y0114307D01*
X0109907Y0114359D01*
X0109942Y0114413D01*
X0109974Y0114469D01*
X0110002Y0114527D01*
X0110027Y0114587D01*
X0110048Y0114648D01*
X0110065Y0114710D01*
X0110079Y0114773D01*
X0110088Y0114836D01*
X0110094Y0114901D01*
X0110096Y0114965D01*
X0109029Y0113898D02*
X0108673Y0113898D01*
X0100750Y0113898D02*
X0100750Y0118165D01*
X0097550Y0118165D01*
X0097486Y0118163D01*
X0097421Y0118157D01*
X0097358Y0118148D01*
X0097295Y0118134D01*
X0097233Y0118117D01*
X0097172Y0118096D01*
X0097112Y0118071D01*
X0097054Y0118043D01*
X0096998Y0118011D01*
X0096944Y0117976D01*
X0096892Y0117938D01*
X0096842Y0117897D01*
X0096796Y0117852D01*
X0096751Y0117806D01*
X0096710Y0117756D01*
X0096672Y0117704D01*
X0096637Y0117650D01*
X0096605Y0117594D01*
X0096577Y0117536D01*
X0096552Y0117476D01*
X0096531Y0117415D01*
X0096514Y0117353D01*
X0096500Y0117290D01*
X0096491Y0117227D01*
X0096485Y0117162D01*
X0096483Y0117098D01*
X0096483Y0113898D01*
X0098617Y0113898D02*
X0098617Y0118165D01*
X0093353Y0118165D02*
X0091931Y0118165D01*
X0091867Y0118163D01*
X0091802Y0118157D01*
X0091739Y0118148D01*
X0091676Y0118134D01*
X0091614Y0118117D01*
X0091553Y0118096D01*
X0091493Y0118071D01*
X0091435Y0118043D01*
X0091379Y0118011D01*
X0091325Y0117976D01*
X0091273Y0117938D01*
X0091223Y0117897D01*
X0091177Y0117852D01*
X0091132Y0117806D01*
X0091091Y0117756D01*
X0091053Y0117704D01*
X0091018Y0117650D01*
X0090986Y0117594D01*
X0090958Y0117536D01*
X0090933Y0117476D01*
X0090912Y0117415D01*
X0090895Y0117353D01*
X0090881Y0117290D01*
X0090872Y0117227D01*
X0090866Y0117162D01*
X0090864Y0117098D01*
X0090864Y0113898D01*
X0092464Y0113898D01*
X0092464Y0113899D02*
X0092534Y0113901D01*
X0092603Y0113907D01*
X0092672Y0113917D01*
X0092741Y0113930D01*
X0092808Y0113948D01*
X0092875Y0113969D01*
X0092940Y0113994D01*
X0093004Y0114022D01*
X0093066Y0114054D01*
X0093126Y0114090D01*
X0093184Y0114128D01*
X0093240Y0114170D01*
X0093293Y0114215D01*
X0093344Y0114263D01*
X0093392Y0114314D01*
X0093437Y0114367D01*
X0093479Y0114423D01*
X0093517Y0114481D01*
X0093553Y0114541D01*
X0093585Y0114603D01*
X0093613Y0114667D01*
X0093638Y0114732D01*
X0093659Y0114799D01*
X0093677Y0114866D01*
X0093690Y0114935D01*
X0093700Y0115004D01*
X0093706Y0115073D01*
X0093708Y0115143D01*
X0093706Y0115213D01*
X0093700Y0115282D01*
X0093690Y0115351D01*
X0093677Y0115420D01*
X0093659Y0115487D01*
X0093638Y0115554D01*
X0093613Y0115619D01*
X0093585Y0115683D01*
X0093553Y0115745D01*
X0093517Y0115805D01*
X0093479Y0115863D01*
X0093437Y0115919D01*
X0093392Y0115972D01*
X0093344Y0116023D01*
X0093293Y0116071D01*
X0093240Y0116116D01*
X0093184Y0116158D01*
X0093126Y0116196D01*
X0093066Y0116232D01*
X0093004Y0116264D01*
X0092940Y0116292D01*
X0092875Y0116317D01*
X0092808Y0116338D01*
X0092741Y0116356D01*
X0092672Y0116369D01*
X0092603Y0116379D01*
X0092534Y0116385D01*
X0092464Y0116387D01*
X0090864Y0116387D01*
X0087941Y0114965D02*
X0087941Y0120298D01*
X0088652Y0118165D02*
X0086519Y0118165D01*
X0083917Y0118165D02*
X0082495Y0118165D01*
X0082431Y0118163D01*
X0082366Y0118157D01*
X0082303Y0118148D01*
X0082240Y0118134D01*
X0082178Y0118117D01*
X0082117Y0118096D01*
X0082057Y0118071D01*
X0081999Y0118043D01*
X0081943Y0118011D01*
X0081889Y0117976D01*
X0081837Y0117938D01*
X0081787Y0117897D01*
X0081741Y0117852D01*
X0081696Y0117806D01*
X0081655Y0117756D01*
X0081617Y0117704D01*
X0081582Y0117650D01*
X0081550Y0117594D01*
X0081522Y0117536D01*
X0081497Y0117476D01*
X0081476Y0117415D01*
X0081459Y0117353D01*
X0081445Y0117290D01*
X0081436Y0117227D01*
X0081430Y0117162D01*
X0081428Y0117098D01*
X0081428Y0113898D01*
X0083028Y0113898D01*
X0083028Y0113899D02*
X0083098Y0113901D01*
X0083167Y0113907D01*
X0083236Y0113917D01*
X0083305Y0113930D01*
X0083372Y0113948D01*
X0083439Y0113969D01*
X0083504Y0113994D01*
X0083568Y0114022D01*
X0083630Y0114054D01*
X0083690Y0114090D01*
X0083748Y0114128D01*
X0083804Y0114170D01*
X0083857Y0114215D01*
X0083908Y0114263D01*
X0083956Y0114314D01*
X0084001Y0114367D01*
X0084043Y0114423D01*
X0084081Y0114481D01*
X0084117Y0114541D01*
X0084149Y0114603D01*
X0084177Y0114667D01*
X0084202Y0114732D01*
X0084223Y0114799D01*
X0084241Y0114866D01*
X0084254Y0114935D01*
X0084264Y0115004D01*
X0084270Y0115073D01*
X0084272Y0115143D01*
X0084270Y0115213D01*
X0084264Y0115282D01*
X0084254Y0115351D01*
X0084241Y0115420D01*
X0084223Y0115487D01*
X0084202Y0115554D01*
X0084177Y0115619D01*
X0084149Y0115683D01*
X0084117Y0115745D01*
X0084081Y0115805D01*
X0084043Y0115863D01*
X0084001Y0115919D01*
X0083956Y0115972D01*
X0083908Y0116023D01*
X0083857Y0116071D01*
X0083804Y0116116D01*
X0083748Y0116158D01*
X0083690Y0116196D01*
X0083630Y0116232D01*
X0083568Y0116264D01*
X0083504Y0116292D01*
X0083439Y0116317D01*
X0083372Y0116338D01*
X0083305Y0116356D01*
X0083236Y0116369D01*
X0083167Y0116379D01*
X0083098Y0116385D01*
X0083028Y0116387D01*
X0081428Y0116387D01*
X0086874Y0113898D02*
X0086938Y0113900D01*
X0087003Y0113906D01*
X0087066Y0113915D01*
X0087129Y0113929D01*
X0087191Y0113946D01*
X0087252Y0113967D01*
X0087312Y0113992D01*
X0087370Y0114020D01*
X0087426Y0114052D01*
X0087480Y0114087D01*
X0087532Y0114125D01*
X0087582Y0114166D01*
X0087628Y0114211D01*
X0087673Y0114257D01*
X0087714Y0114307D01*
X0087752Y0114359D01*
X0087787Y0114413D01*
X0087819Y0114469D01*
X0087847Y0114527D01*
X0087872Y0114587D01*
X0087893Y0114648D01*
X0087910Y0114710D01*
X0087924Y0114773D01*
X0087933Y0114836D01*
X0087939Y0114901D01*
X0087941Y0114965D01*
X0086874Y0113898D02*
X0086519Y0113898D01*
X0033592Y0096763D02*
X0033592Y0093919D01*
X0027192Y0093919D01*
X0027192Y0096763D01*
X0030748Y0096052D02*
X0030748Y0093919D01*
X0030748Y0090898D02*
X0027192Y0090898D01*
X0027192Y0088765D01*
X0027194Y0088691D01*
X0027200Y0088616D01*
X0027210Y0088543D01*
X0027223Y0088469D01*
X0027240Y0088397D01*
X0027262Y0088326D01*
X0027286Y0088255D01*
X0027315Y0088187D01*
X0027347Y0088119D01*
X0027383Y0088054D01*
X0027421Y0087991D01*
X0027464Y0087929D01*
X0027509Y0087870D01*
X0027557Y0087813D01*
X0027608Y0087759D01*
X0027662Y0087708D01*
X0027719Y0087660D01*
X0027778Y0087615D01*
X0027840Y0087572D01*
X0027903Y0087534D01*
X0027968Y0087498D01*
X0028036Y0087466D01*
X0028104Y0087437D01*
X0028175Y0087413D01*
X0028246Y0087391D01*
X0028318Y0087374D01*
X0028392Y0087361D01*
X0028465Y0087351D01*
X0028540Y0087345D01*
X0028614Y0087343D01*
X0032170Y0087343D01*
X0032244Y0087345D01*
X0032319Y0087351D01*
X0032392Y0087361D01*
X0032466Y0087374D01*
X0032538Y0087391D01*
X0032609Y0087413D01*
X0032680Y0087437D01*
X0032748Y0087466D01*
X0032816Y0087498D01*
X0032881Y0087534D01*
X0032944Y0087572D01*
X0033006Y0087615D01*
X0033065Y0087660D01*
X0033121Y0087708D01*
X0033176Y0087759D01*
X0033227Y0087813D01*
X0033275Y0087870D01*
X0033320Y0087929D01*
X0033363Y0087991D01*
X0033401Y0088054D01*
X0033437Y0088119D01*
X0033469Y0088187D01*
X0033498Y0088255D01*
X0033522Y0088326D01*
X0033544Y0088397D01*
X0033561Y0088469D01*
X0033574Y0088543D01*
X0033584Y0088616D01*
X0033590Y0088691D01*
X0033592Y0088765D01*
X0033592Y0090898D01*
X0030748Y0090898D02*
X0030748Y0089831D01*
X0028792Y0084361D02*
X0028792Y0081161D01*
X0027192Y0080628D02*
X0033592Y0082761D01*
X0027192Y0084894D01*
X0033592Y0078795D02*
X0033592Y0075240D01*
X0033592Y0077017D02*
X0027192Y0077017D01*
X0027192Y0073378D02*
X0027192Y0070533D01*
X0033592Y0070533D01*
X0037692Y0071819D02*
X0044092Y0071819D01*
X0044092Y0074663D01*
X0041248Y0073952D02*
X0041248Y0071819D01*
X0041248Y0068798D02*
X0037692Y0068798D01*
X0037692Y0066665D01*
X0037694Y0066591D01*
X0037700Y0066516D01*
X0037710Y0066443D01*
X0037723Y0066369D01*
X0037740Y0066297D01*
X0037762Y0066226D01*
X0037786Y0066155D01*
X0037815Y0066087D01*
X0037847Y0066019D01*
X0037883Y0065954D01*
X0037921Y0065891D01*
X0037964Y0065829D01*
X0038009Y0065770D01*
X0038057Y0065713D01*
X0038108Y0065659D01*
X0038162Y0065608D01*
X0038219Y0065560D01*
X0038278Y0065515D01*
X0038340Y0065472D01*
X0038403Y0065434D01*
X0038468Y0065398D01*
X0038536Y0065366D01*
X0038604Y0065337D01*
X0038675Y0065313D01*
X0038746Y0065291D01*
X0038818Y0065274D01*
X0038892Y0065261D01*
X0038965Y0065251D01*
X0039040Y0065245D01*
X0039114Y0065243D01*
X0042670Y0065243D01*
X0042744Y0065245D01*
X0042819Y0065251D01*
X0042892Y0065261D01*
X0042966Y0065274D01*
X0043038Y0065291D01*
X0043109Y0065313D01*
X0043180Y0065337D01*
X0043248Y0065366D01*
X0043316Y0065398D01*
X0043381Y0065434D01*
X0043444Y0065472D01*
X0043506Y0065515D01*
X0043565Y0065560D01*
X0043621Y0065608D01*
X0043676Y0065659D01*
X0043727Y0065713D01*
X0043775Y0065770D01*
X0043820Y0065829D01*
X0043863Y0065891D01*
X0043901Y0065954D01*
X0043937Y0066019D01*
X0043969Y0066087D01*
X0043998Y0066155D01*
X0044022Y0066226D01*
X0044044Y0066297D01*
X0044061Y0066369D01*
X0044074Y0066443D01*
X0044084Y0066516D01*
X0044090Y0066591D01*
X0044092Y0066665D01*
X0044092Y0068798D01*
X0041248Y0068798D02*
X0041248Y0067732D01*
X0037692Y0071819D02*
X0037692Y0074663D01*
X0037692Y0077177D02*
X0044092Y0077177D01*
X0044092Y0078954D01*
X0044090Y0079037D01*
X0044084Y0079120D01*
X0044074Y0079203D01*
X0044061Y0079286D01*
X0044043Y0079367D01*
X0044022Y0079448D01*
X0043997Y0079527D01*
X0043968Y0079605D01*
X0043936Y0079682D01*
X0043900Y0079757D01*
X0043861Y0079831D01*
X0043818Y0079902D01*
X0043772Y0079972D01*
X0043722Y0080039D01*
X0043670Y0080104D01*
X0043615Y0080166D01*
X0043556Y0080226D01*
X0043495Y0080283D01*
X0043432Y0080337D01*
X0043366Y0080388D01*
X0043297Y0080435D01*
X0043227Y0080480D01*
X0043154Y0080521D01*
X0043080Y0080558D01*
X0043004Y0080593D01*
X0042926Y0080623D01*
X0042848Y0080650D01*
X0042767Y0080673D01*
X0042686Y0080693D01*
X0042604Y0080708D01*
X0042522Y0080720D01*
X0042439Y0080728D01*
X0042356Y0080732D01*
X0042272Y0080732D01*
X0042189Y0080728D01*
X0042106Y0080720D01*
X0042024Y0080708D01*
X0041942Y0080693D01*
X0041861Y0080673D01*
X0041780Y0080650D01*
X0041702Y0080623D01*
X0041624Y0080593D01*
X0041548Y0080558D01*
X0041474Y0080521D01*
X0041401Y0080480D01*
X0041331Y0080435D01*
X0041262Y0080388D01*
X0041196Y0080337D01*
X0041133Y0080283D01*
X0041072Y0080226D01*
X0041013Y0080166D01*
X0040958Y0080104D01*
X0040906Y0080039D01*
X0040856Y0079972D01*
X0040810Y0079902D01*
X0040767Y0079831D01*
X0040728Y0079757D01*
X0040692Y0079682D01*
X0040660Y0079605D01*
X0040631Y0079527D01*
X0040606Y0079448D01*
X0040585Y0079367D01*
X0040567Y0079286D01*
X0040554Y0079203D01*
X0040544Y0079120D01*
X0040538Y0079037D01*
X0040536Y0078954D01*
X0040537Y0078954D02*
X0040537Y0077177D01*
X0040537Y0079310D02*
X0037692Y0080732D01*
X0037692Y0083048D02*
X0037692Y0083404D01*
X0038048Y0083404D01*
X0038048Y0083048D01*
X0037692Y0083048D01*
X0039825Y0083226D02*
X0044092Y0083226D01*
X0031814Y0067718D02*
X0028970Y0067718D01*
X0028887Y0067716D01*
X0028804Y0067710D01*
X0028721Y0067700D01*
X0028638Y0067687D01*
X0028557Y0067669D01*
X0028476Y0067648D01*
X0028397Y0067623D01*
X0028319Y0067594D01*
X0028242Y0067562D01*
X0028167Y0067526D01*
X0028093Y0067487D01*
X0028022Y0067444D01*
X0027952Y0067398D01*
X0027885Y0067348D01*
X0027820Y0067296D01*
X0027758Y0067241D01*
X0027698Y0067182D01*
X0027641Y0067121D01*
X0027587Y0067058D01*
X0027536Y0066992D01*
X0027489Y0066923D01*
X0027444Y0066853D01*
X0027403Y0066780D01*
X0027366Y0066706D01*
X0027331Y0066630D01*
X0027301Y0066552D01*
X0027274Y0066474D01*
X0027251Y0066393D01*
X0027231Y0066312D01*
X0027216Y0066230D01*
X0027204Y0066148D01*
X0027196Y0066065D01*
X0027192Y0065982D01*
X0027192Y0065898D01*
X0027196Y0065815D01*
X0027204Y0065732D01*
X0027216Y0065650D01*
X0027231Y0065568D01*
X0027251Y0065487D01*
X0027274Y0065406D01*
X0027301Y0065328D01*
X0027331Y0065250D01*
X0027366Y0065174D01*
X0027403Y0065100D01*
X0027444Y0065027D01*
X0027489Y0064957D01*
X0027536Y0064888D01*
X0027587Y0064822D01*
X0027641Y0064759D01*
X0027698Y0064698D01*
X0027758Y0064639D01*
X0027820Y0064584D01*
X0027885Y0064532D01*
X0027952Y0064482D01*
X0028022Y0064436D01*
X0028093Y0064393D01*
X0028167Y0064354D01*
X0028242Y0064318D01*
X0028319Y0064286D01*
X0028397Y0064257D01*
X0028476Y0064232D01*
X0028557Y0064211D01*
X0028638Y0064193D01*
X0028721Y0064180D01*
X0028804Y0064170D01*
X0028887Y0064164D01*
X0028970Y0064162D01*
X0031814Y0064162D01*
X0031897Y0064164D01*
X0031980Y0064170D01*
X0032063Y0064180D01*
X0032146Y0064193D01*
X0032227Y0064211D01*
X0032308Y0064232D01*
X0032387Y0064257D01*
X0032465Y0064286D01*
X0032542Y0064318D01*
X0032617Y0064354D01*
X0032691Y0064393D01*
X0032762Y0064436D01*
X0032832Y0064482D01*
X0032899Y0064532D01*
X0032964Y0064584D01*
X0033026Y0064639D01*
X0033086Y0064698D01*
X0033143Y0064759D01*
X0033197Y0064822D01*
X0033248Y0064888D01*
X0033295Y0064957D01*
X0033340Y0065027D01*
X0033381Y0065100D01*
X0033418Y0065174D01*
X0033453Y0065250D01*
X0033483Y0065328D01*
X0033510Y0065406D01*
X0033533Y0065487D01*
X0033553Y0065568D01*
X0033568Y0065650D01*
X0033580Y0065732D01*
X0033588Y0065815D01*
X0033592Y0065898D01*
X0033592Y0065982D01*
X0033588Y0066065D01*
X0033580Y0066148D01*
X0033568Y0066230D01*
X0033553Y0066312D01*
X0033533Y0066393D01*
X0033510Y0066474D01*
X0033483Y0066552D01*
X0033453Y0066630D01*
X0033418Y0066706D01*
X0033381Y0066780D01*
X0033340Y0066853D01*
X0033295Y0066923D01*
X0033248Y0066992D01*
X0033197Y0067058D01*
X0033143Y0067121D01*
X0033086Y0067182D01*
X0033026Y0067241D01*
X0032964Y0067296D01*
X0032899Y0067348D01*
X0032832Y0067398D01*
X0032762Y0067444D01*
X0032691Y0067487D01*
X0032617Y0067526D01*
X0032542Y0067562D01*
X0032465Y0067594D01*
X0032387Y0067623D01*
X0032308Y0067648D01*
X0032227Y0067669D01*
X0032146Y0067687D01*
X0032063Y0067700D01*
X0031980Y0067710D01*
X0031897Y0067716D01*
X0031814Y0067718D01*
X0037692Y0062234D02*
X0044092Y0062234D01*
X0044092Y0058678D02*
X0037692Y0058678D01*
X0033592Y0057653D02*
X0027192Y0059786D01*
X0033592Y0061919D01*
X0037692Y0062234D02*
X0044092Y0058678D01*
X0044092Y0054097D02*
X0037692Y0056230D01*
X0039292Y0055697D02*
X0039292Y0052497D01*
X0037692Y0051964D02*
X0044092Y0054097D01*
X0042314Y0049516D02*
X0039470Y0049516D01*
X0039388Y0049514D01*
X0039306Y0049508D01*
X0039224Y0049499D01*
X0039143Y0049486D01*
X0039063Y0049469D01*
X0038983Y0049448D01*
X0038905Y0049424D01*
X0038828Y0049396D01*
X0038752Y0049365D01*
X0038677Y0049330D01*
X0038605Y0049291D01*
X0038534Y0049250D01*
X0038465Y0049205D01*
X0038399Y0049157D01*
X0038334Y0049106D01*
X0038272Y0049052D01*
X0038213Y0048995D01*
X0038156Y0048936D01*
X0038102Y0048874D01*
X0038051Y0048809D01*
X0038003Y0048743D01*
X0037958Y0048674D01*
X0037917Y0048603D01*
X0037878Y0048531D01*
X0037843Y0048456D01*
X0037812Y0048380D01*
X0037784Y0048303D01*
X0037760Y0048225D01*
X0037739Y0048145D01*
X0037722Y0048065D01*
X0037709Y0047984D01*
X0037700Y0047902D01*
X0037694Y0047820D01*
X0037692Y0047738D01*
X0037692Y0045960D01*
X0044092Y0045960D01*
X0044092Y0047738D01*
X0044090Y0047820D01*
X0044084Y0047902D01*
X0044075Y0047984D01*
X0044062Y0048065D01*
X0044045Y0048145D01*
X0044024Y0048225D01*
X0044000Y0048303D01*
X0043972Y0048380D01*
X0043941Y0048456D01*
X0043906Y0048531D01*
X0043867Y0048603D01*
X0043826Y0048674D01*
X0043781Y0048743D01*
X0043733Y0048809D01*
X0043682Y0048874D01*
X0043628Y0048936D01*
X0043571Y0048995D01*
X0043512Y0049052D01*
X0043450Y0049106D01*
X0043385Y0049157D01*
X0043319Y0049205D01*
X0043250Y0049250D01*
X0043179Y0049291D01*
X0043107Y0049330D01*
X0043032Y0049365D01*
X0042956Y0049396D01*
X0042879Y0049424D01*
X0042801Y0049448D01*
X0042721Y0049469D01*
X0042641Y0049486D01*
X0042560Y0049499D01*
X0042478Y0049508D01*
X0042396Y0049514D01*
X0042314Y0049516D01*
X0033592Y0048367D02*
X0027192Y0048367D01*
X0027192Y0051923D02*
X0033592Y0051923D01*
X0030748Y0051923D02*
X0030748Y0048367D01*
X0030748Y0045358D02*
X0027192Y0045358D01*
X0027192Y0043225D01*
X0027194Y0043151D01*
X0027200Y0043076D01*
X0027210Y0043003D01*
X0027223Y0042929D01*
X0027240Y0042857D01*
X0027262Y0042786D01*
X0027286Y0042715D01*
X0027315Y0042647D01*
X0027347Y0042579D01*
X0027383Y0042514D01*
X0027421Y0042451D01*
X0027464Y0042389D01*
X0027509Y0042330D01*
X0027557Y0042273D01*
X0027608Y0042219D01*
X0027662Y0042168D01*
X0027719Y0042120D01*
X0027778Y0042075D01*
X0027840Y0042032D01*
X0027903Y0041994D01*
X0027968Y0041958D01*
X0028036Y0041926D01*
X0028104Y0041897D01*
X0028175Y0041873D01*
X0028246Y0041851D01*
X0028318Y0041834D01*
X0028392Y0041821D01*
X0028465Y0041811D01*
X0028540Y0041805D01*
X0028614Y0041803D01*
X0032170Y0041803D01*
X0032244Y0041805D01*
X0032319Y0041811D01*
X0032392Y0041821D01*
X0032466Y0041834D01*
X0032538Y0041851D01*
X0032609Y0041873D01*
X0032680Y0041897D01*
X0032748Y0041926D01*
X0032816Y0041958D01*
X0032881Y0041994D01*
X0032944Y0042032D01*
X0033006Y0042075D01*
X0033065Y0042120D01*
X0033121Y0042168D01*
X0033176Y0042219D01*
X0033227Y0042273D01*
X0033275Y0042330D01*
X0033320Y0042389D01*
X0033363Y0042451D01*
X0033401Y0042514D01*
X0033437Y0042579D01*
X0033469Y0042647D01*
X0033498Y0042715D01*
X0033522Y0042786D01*
X0033544Y0042857D01*
X0033561Y0042929D01*
X0033574Y0043003D01*
X0033584Y0043076D01*
X0033590Y0043151D01*
X0033592Y0043225D01*
X0033592Y0045358D01*
X0030748Y0045358D02*
X0030748Y0044292D01*
X0033592Y0039163D02*
X0033592Y0037741D01*
X0033592Y0038452D02*
X0027192Y0038452D01*
X0027192Y0037741D02*
X0027192Y0039163D01*
X0027192Y0035102D02*
X0033592Y0035102D01*
X0030748Y0035102D02*
X0030748Y0031546D01*
X0033592Y0031546D02*
X0027192Y0031546D01*
X0150379Y0115321D02*
X0150381Y0115247D01*
X0150387Y0115172D01*
X0150397Y0115099D01*
X0150410Y0115025D01*
X0150427Y0114953D01*
X0150449Y0114882D01*
X0150473Y0114811D01*
X0150502Y0114743D01*
X0150534Y0114675D01*
X0150570Y0114610D01*
X0150608Y0114547D01*
X0150651Y0114485D01*
X0150696Y0114426D01*
X0150744Y0114369D01*
X0150795Y0114315D01*
X0150849Y0114264D01*
X0150906Y0114216D01*
X0150965Y0114171D01*
X0151027Y0114128D01*
X0151090Y0114090D01*
X0151155Y0114054D01*
X0151223Y0114022D01*
X0151291Y0113993D01*
X0151362Y0113969D01*
X0151433Y0113947D01*
X0151505Y0113930D01*
X0151579Y0113917D01*
X0151652Y0113907D01*
X0151727Y0113901D01*
X0151801Y0113899D01*
X0150380Y0115321D02*
X0150382Y0115396D01*
X0150388Y0115471D01*
X0150397Y0115545D01*
X0150411Y0115619D01*
X0150428Y0115692D01*
X0150449Y0115764D01*
X0150474Y0115834D01*
X0150503Y0115904D01*
X0150535Y0115971D01*
X0150570Y0116037D01*
X0150609Y0116102D01*
X0150651Y0116164D01*
X0150697Y0116223D01*
X0150745Y0116281D01*
X0150796Y0116335D01*
X0150850Y0116387D01*
X0150907Y0116436D01*
X0150966Y0116482D01*
X0151027Y0116525D01*
X0151091Y0116565D01*
X0151090Y0116565D02*
X0153046Y0117632D01*
X0152335Y0120299D02*
X0152234Y0120297D01*
X0152133Y0120291D01*
X0152033Y0120282D01*
X0151933Y0120268D01*
X0151833Y0120251D01*
X0151734Y0120231D01*
X0151637Y0120206D01*
X0151540Y0120178D01*
X0151444Y0120146D01*
X0151349Y0120110D01*
X0151256Y0120071D01*
X0151165Y0120029D01*
X0151075Y0119983D01*
X0150987Y0119933D01*
X0150901Y0119881D01*
X0150817Y0119825D01*
X0150735Y0119766D01*
X0153045Y0117632D02*
X0153109Y0117672D01*
X0153170Y0117715D01*
X0153229Y0117761D01*
X0153286Y0117810D01*
X0153340Y0117862D01*
X0153391Y0117916D01*
X0153439Y0117974D01*
X0153485Y0118033D01*
X0153527Y0118095D01*
X0153566Y0118160D01*
X0153601Y0118226D01*
X0153633Y0118293D01*
X0153662Y0118363D01*
X0153687Y0118433D01*
X0153708Y0118505D01*
X0153725Y0118578D01*
X0153739Y0118652D01*
X0153748Y0118726D01*
X0153754Y0118801D01*
X0153756Y0118876D01*
X0153757Y0118876D02*
X0153755Y0118950D01*
X0153749Y0119025D01*
X0153739Y0119098D01*
X0153726Y0119172D01*
X0153709Y0119244D01*
X0153687Y0119315D01*
X0153663Y0119386D01*
X0153634Y0119454D01*
X0153602Y0119522D01*
X0153566Y0119587D01*
X0153528Y0119650D01*
X0153485Y0119712D01*
X0153440Y0119771D01*
X0153392Y0119828D01*
X0153341Y0119882D01*
X0153287Y0119933D01*
X0153230Y0119981D01*
X0153171Y0120026D01*
X0153109Y0120069D01*
X0153046Y0120107D01*
X0152981Y0120143D01*
X0152913Y0120175D01*
X0152845Y0120204D01*
X0152774Y0120228D01*
X0152703Y0120250D01*
X0152631Y0120267D01*
X0152557Y0120280D01*
X0152484Y0120290D01*
X0152409Y0120296D01*
X0152335Y0120298D01*
X0153934Y0114788D02*
X0153857Y0114713D01*
X0153777Y0114640D01*
X0153694Y0114571D01*
X0153609Y0114504D01*
X0153522Y0114441D01*
X0153433Y0114381D01*
X0153341Y0114324D01*
X0153248Y0114270D01*
X0153152Y0114220D01*
X0153055Y0114173D01*
X0152956Y0114130D01*
X0152856Y0114090D01*
X0152755Y0114054D01*
X0152652Y0114022D01*
X0152548Y0113993D01*
X0152443Y0113968D01*
X0152337Y0113947D01*
X0152231Y0113930D01*
X0152124Y0113916D01*
X0152016Y0113907D01*
X0151909Y0113901D01*
X0151801Y0113899D01*
D12*
X0155809Y0113795D02*
X0155809Y0108087D01*
X0155809Y0104150D02*
X0155809Y0098441D01*
X0155809Y0094504D02*
X0155809Y0088795D01*
X0149773Y0088795D01*
X0145836Y0088795D02*
X0139799Y0088795D01*
X0135862Y0088795D02*
X0129825Y0088795D01*
X0125635Y0085140D01*
X0122668Y0082552D02*
X0118478Y0078897D01*
X0115511Y0076309D02*
X0111321Y0072654D01*
X0106302Y0072654D01*
X0102365Y0072654D02*
X0097345Y0072654D01*
X0093408Y0072654D02*
X0088388Y0072654D01*
X0084451Y0072654D02*
X0079431Y0072654D01*
X0079431Y0068476D01*
X0079431Y0064539D02*
X0079431Y0060361D01*
X0079431Y0056424D02*
X0079431Y0052247D01*
X0079431Y0048310D02*
X0079431Y0044132D01*
X0079431Y0040195D02*
X0079431Y0036017D01*
X0079431Y0032080D02*
X0079431Y0027903D01*
X0079431Y0023966D02*
X0079431Y0019788D01*
X0079431Y0015851D02*
X0079431Y0011674D01*
X0079431Y0007737D02*
X0079431Y0003559D01*
X0074641Y0003559D01*
X0070704Y0003559D02*
X0065914Y0003559D01*
X0061977Y0003559D02*
X0057187Y0003559D01*
X0053250Y0003559D02*
X0048460Y0003559D01*
X0044523Y0003559D02*
X0039733Y0003559D01*
X0035796Y0003559D02*
X0031006Y0003559D01*
X0027069Y0003559D02*
X0022279Y0003559D01*
X0018342Y0003559D02*
X0013552Y0003559D01*
X0009615Y0003559D02*
X0004825Y0003559D01*
X0004825Y0007877D01*
X0004825Y0011814D02*
X0004825Y0016131D01*
X0004825Y0020068D02*
X0004825Y0024386D01*
X0004825Y0028323D02*
X0004825Y0032640D01*
X0004825Y0036577D02*
X0004825Y0040895D01*
X0004825Y0044832D02*
X0004825Y0049150D01*
X0004825Y0053087D02*
X0004825Y0057404D01*
X0004825Y0061341D02*
X0004825Y0065659D01*
X0004825Y0069596D02*
X0004825Y0073913D01*
X0004825Y0077850D02*
X0004825Y0082168D01*
X0004825Y0086105D02*
X0004825Y0090423D01*
X0004825Y0094360D02*
X0004825Y0098677D01*
X0004825Y0102614D02*
X0004825Y0106932D01*
X0004825Y0110869D02*
X0004825Y0115186D01*
X0004825Y0119123D02*
X0004825Y0123441D01*
X0009063Y0123441D01*
X0013000Y0123441D02*
X0017237Y0123441D01*
X0021174Y0123441D02*
X0025412Y0123441D01*
X0029349Y0123441D02*
X0033586Y0123441D01*
X0037523Y0123441D02*
X0041761Y0123441D01*
X0045698Y0123441D02*
X0049935Y0123441D01*
X0053872Y0123441D02*
X0058109Y0123441D01*
X0062046Y0123441D02*
X0066284Y0123441D01*
X0070221Y0123441D02*
X0074458Y0123441D01*
X0078395Y0123441D02*
X0082633Y0123441D01*
X0086570Y0123441D02*
X0090807Y0123441D01*
X0094744Y0123441D02*
X0098982Y0123441D01*
X0102919Y0123441D02*
X0107156Y0123441D01*
X0111093Y0123441D02*
X0115331Y0123441D01*
X0119268Y0123441D02*
X0123505Y0123441D01*
X0127442Y0123441D02*
X0131680Y0123441D01*
X0135617Y0123441D02*
X0139854Y0123441D01*
X0143791Y0123441D02*
X0148029Y0123441D01*
X0151966Y0123441D02*
X0156203Y0123441D01*
X0155809Y0123441D02*
X0155809Y0117732D01*
D13*
X0142814Y0110712D02*
X0142816Y0110650D01*
X0142822Y0110588D01*
X0142831Y0110527D01*
X0142845Y0110467D01*
X0142862Y0110407D01*
X0142883Y0110349D01*
X0142907Y0110292D01*
X0142935Y0110237D01*
X0142966Y0110183D01*
X0143001Y0110132D01*
X0143038Y0110083D01*
X0143079Y0110036D01*
X0143122Y0109992D01*
X0143123Y0109993D02*
X0144870Y0107937D01*
X0142815Y0107937D01*
X0141065Y0108760D02*
X0139420Y0110815D01*
X0139523Y0111124D02*
X0139542Y0111173D01*
X0139564Y0111220D01*
X0139589Y0111266D01*
X0139618Y0111310D01*
X0139649Y0111352D01*
X0139683Y0111392D01*
X0139720Y0111430D01*
X0139759Y0111464D01*
X0139801Y0111496D01*
X0139844Y0111525D01*
X0139890Y0111551D01*
X0139937Y0111574D01*
X0139986Y0111593D01*
X0140036Y0111609D01*
X0140087Y0111622D01*
X0140138Y0111631D01*
X0140191Y0111636D01*
X0140243Y0111638D01*
X0140295Y0111636D01*
X0140348Y0111631D01*
X0140399Y0111622D01*
X0140450Y0111609D01*
X0140500Y0111593D01*
X0140549Y0111574D01*
X0140596Y0111551D01*
X0140642Y0111525D01*
X0140685Y0111496D01*
X0140727Y0111464D01*
X0140766Y0111430D01*
X0140803Y0111392D01*
X0140837Y0111352D01*
X0140869Y0111310D01*
X0140897Y0111266D01*
X0140922Y0111220D01*
X0140944Y0111173D01*
X0140963Y0111124D01*
X0139523Y0111123D02*
X0139478Y0111027D01*
X0139437Y0110929D01*
X0139399Y0110829D01*
X0139364Y0110729D01*
X0139333Y0110627D01*
X0139305Y0110524D01*
X0139282Y0110421D01*
X0139261Y0110316D01*
X0139245Y0110211D01*
X0139232Y0110106D01*
X0139222Y0110000D01*
X0139217Y0109893D01*
X0139215Y0109787D01*
X0141270Y0109787D02*
X0141268Y0109893D01*
X0141263Y0110000D01*
X0141253Y0110106D01*
X0141240Y0110211D01*
X0141224Y0110316D01*
X0141203Y0110421D01*
X0141180Y0110524D01*
X0141152Y0110627D01*
X0141121Y0110729D01*
X0141086Y0110829D01*
X0141048Y0110929D01*
X0141007Y0111027D01*
X0140962Y0111123D01*
X0139215Y0109787D02*
X0139217Y0109681D01*
X0139222Y0109574D01*
X0139232Y0109468D01*
X0139245Y0109363D01*
X0139261Y0109258D01*
X0139282Y0109153D01*
X0139305Y0109050D01*
X0139333Y0108947D01*
X0139364Y0108845D01*
X0139399Y0108745D01*
X0139437Y0108645D01*
X0139478Y0108547D01*
X0139523Y0108451D01*
X0140243Y0107937D02*
X0140295Y0107939D01*
X0140348Y0107944D01*
X0140399Y0107953D01*
X0140450Y0107966D01*
X0140500Y0107982D01*
X0140549Y0108001D01*
X0140596Y0108024D01*
X0140642Y0108050D01*
X0140685Y0108079D01*
X0140727Y0108111D01*
X0140766Y0108145D01*
X0140803Y0108183D01*
X0140837Y0108223D01*
X0140869Y0108265D01*
X0140897Y0108309D01*
X0140922Y0108355D01*
X0140944Y0108402D01*
X0140963Y0108451D01*
X0140243Y0107937D02*
X0140191Y0107939D01*
X0140138Y0107944D01*
X0140087Y0107953D01*
X0140036Y0107966D01*
X0139986Y0107982D01*
X0139937Y0108001D01*
X0139890Y0108024D01*
X0139844Y0108050D01*
X0139801Y0108079D01*
X0139759Y0108111D01*
X0139720Y0108145D01*
X0139683Y0108183D01*
X0139649Y0108223D01*
X0139618Y0108265D01*
X0139589Y0108309D01*
X0139564Y0108355D01*
X0139542Y0108402D01*
X0139523Y0108451D01*
X0140962Y0108451D02*
X0141007Y0108547D01*
X0141048Y0108645D01*
X0141086Y0108745D01*
X0141121Y0108845D01*
X0141152Y0108947D01*
X0141180Y0109050D01*
X0141203Y0109153D01*
X0141224Y0109258D01*
X0141240Y0109363D01*
X0141253Y0109468D01*
X0141263Y0109574D01*
X0141268Y0109681D01*
X0141270Y0109787D01*
X0143740Y0111637D02*
X0143808Y0111635D01*
X0143876Y0111629D01*
X0143943Y0111620D01*
X0144009Y0111606D01*
X0144075Y0111589D01*
X0144140Y0111568D01*
X0144203Y0111543D01*
X0144265Y0111515D01*
X0144325Y0111483D01*
X0144383Y0111448D01*
X0144439Y0111410D01*
X0144493Y0111368D01*
X0144544Y0111324D01*
X0144592Y0111276D01*
X0144638Y0111226D01*
X0144681Y0111174D01*
X0144721Y0111119D01*
X0144758Y0111062D01*
X0144791Y0111003D01*
X0144821Y0110942D01*
X0144847Y0110879D01*
X0144870Y0110815D01*
X0143740Y0111637D02*
X0143682Y0111635D01*
X0143624Y0111630D01*
X0143567Y0111621D01*
X0143510Y0111608D01*
X0143454Y0111592D01*
X0143399Y0111572D01*
X0143346Y0111549D01*
X0143294Y0111523D01*
X0143244Y0111493D01*
X0143196Y0111460D01*
X0143150Y0111425D01*
X0143107Y0111386D01*
X0143066Y0111345D01*
X0143027Y0111302D01*
X0142992Y0111256D01*
X0142959Y0111208D01*
X0142929Y0111158D01*
X0142903Y0111106D01*
X0142880Y0111053D01*
X0142860Y0110998D01*
X0142844Y0110942D01*
X0142831Y0110885D01*
X0142822Y0110828D01*
X0142817Y0110770D01*
X0142815Y0110712D01*
X0137670Y0110815D02*
X0136643Y0111637D01*
X0136643Y0107937D01*
X0137670Y0107937D02*
X0135615Y0107937D01*
X0133043Y0107937D02*
X0132015Y0111637D01*
X0134070Y0111637D01*
X0134070Y0111226D01*
X0128379Y0111637D02*
X0127351Y0111637D01*
X0127295Y0111635D01*
X0127239Y0111629D01*
X0127184Y0111620D01*
X0127129Y0111607D01*
X0127076Y0111590D01*
X0127024Y0111569D01*
X0126973Y0111545D01*
X0126924Y0111517D01*
X0126877Y0111487D01*
X0126832Y0111453D01*
X0126790Y0111416D01*
X0126750Y0111376D01*
X0126713Y0111334D01*
X0126679Y0111289D01*
X0126649Y0111242D01*
X0126621Y0111193D01*
X0126597Y0111142D01*
X0126576Y0111090D01*
X0126559Y0111037D01*
X0126546Y0110982D01*
X0126537Y0110927D01*
X0126531Y0110871D01*
X0126529Y0110815D01*
X0126531Y0110759D01*
X0126537Y0110703D01*
X0126546Y0110648D01*
X0126559Y0110593D01*
X0126576Y0110540D01*
X0126597Y0110488D01*
X0126621Y0110437D01*
X0126649Y0110388D01*
X0126679Y0110341D01*
X0126713Y0110296D01*
X0126750Y0110254D01*
X0126790Y0110214D01*
X0126832Y0110177D01*
X0126877Y0110143D01*
X0126924Y0110113D01*
X0126973Y0110085D01*
X0127024Y0110061D01*
X0127076Y0110040D01*
X0127129Y0110023D01*
X0127184Y0110010D01*
X0127239Y0110001D01*
X0127295Y0109995D01*
X0127351Y0109993D01*
X0128379Y0109993D01*
X0127351Y0109993D02*
X0127288Y0109991D01*
X0127225Y0109985D01*
X0127162Y0109975D01*
X0127100Y0109962D01*
X0127039Y0109945D01*
X0126980Y0109924D01*
X0126921Y0109899D01*
X0126865Y0109871D01*
X0126810Y0109839D01*
X0126757Y0109804D01*
X0126707Y0109766D01*
X0126658Y0109725D01*
X0126613Y0109681D01*
X0126570Y0109634D01*
X0126531Y0109585D01*
X0126494Y0109533D01*
X0126461Y0109479D01*
X0126431Y0109423D01*
X0126404Y0109366D01*
X0126381Y0109307D01*
X0126362Y0109246D01*
X0126347Y0109185D01*
X0126335Y0109123D01*
X0126327Y0109060D01*
X0126323Y0108997D01*
X0126323Y0108933D01*
X0126327Y0108870D01*
X0126335Y0108807D01*
X0126347Y0108745D01*
X0126362Y0108684D01*
X0126381Y0108623D01*
X0126404Y0108564D01*
X0126431Y0108507D01*
X0126461Y0108451D01*
X0126494Y0108397D01*
X0126531Y0108345D01*
X0126570Y0108296D01*
X0126613Y0108249D01*
X0126658Y0108205D01*
X0126707Y0108164D01*
X0126757Y0108126D01*
X0126810Y0108091D01*
X0126865Y0108059D01*
X0126921Y0108031D01*
X0126980Y0108006D01*
X0127039Y0107985D01*
X0127100Y0107968D01*
X0127162Y0107955D01*
X0127225Y0107945D01*
X0127288Y0107939D01*
X0127351Y0107937D01*
X0128379Y0107937D01*
X0128379Y0111637D01*
X0124845Y0110404D02*
X0123611Y0110404D01*
X0123611Y0109993D01*
X0124845Y0110404D02*
X0124845Y0107937D01*
X0121763Y0107937D02*
X0120838Y0107937D01*
X0120838Y0109787D01*
X0120838Y0109376D02*
X0121763Y0109376D01*
X0120838Y0109787D02*
X0120840Y0109835D01*
X0120846Y0109884D01*
X0120855Y0109931D01*
X0120868Y0109978D01*
X0120885Y0110023D01*
X0120905Y0110067D01*
X0120929Y0110109D01*
X0120956Y0110150D01*
X0120986Y0110188D01*
X0121019Y0110223D01*
X0121054Y0110256D01*
X0121092Y0110286D01*
X0121133Y0110313D01*
X0121175Y0110337D01*
X0121219Y0110357D01*
X0121264Y0110374D01*
X0121311Y0110387D01*
X0121358Y0110396D01*
X0121407Y0110402D01*
X0121455Y0110404D01*
X0122277Y0110404D01*
X0121763Y0109376D02*
X0121815Y0109374D01*
X0121868Y0109368D01*
X0121919Y0109359D01*
X0121970Y0109346D01*
X0122020Y0109329D01*
X0122068Y0109308D01*
X0122115Y0109284D01*
X0122160Y0109257D01*
X0122202Y0109226D01*
X0122243Y0109192D01*
X0122281Y0109156D01*
X0122316Y0109117D01*
X0122348Y0109075D01*
X0122377Y0109032D01*
X0122402Y0108986D01*
X0122425Y0108938D01*
X0122443Y0108889D01*
X0122459Y0108839D01*
X0122470Y0108788D01*
X0122478Y0108736D01*
X0122482Y0108683D01*
X0122482Y0108631D01*
X0122478Y0108578D01*
X0122470Y0108526D01*
X0122459Y0108475D01*
X0122443Y0108425D01*
X0122425Y0108376D01*
X0122402Y0108328D01*
X0122377Y0108282D01*
X0122348Y0108239D01*
X0122316Y0108197D01*
X0122281Y0108158D01*
X0122243Y0108122D01*
X0122202Y0108088D01*
X0122160Y0108057D01*
X0122115Y0108030D01*
X0122068Y0108006D01*
X0122020Y0107985D01*
X0121970Y0107968D01*
X0121919Y0107955D01*
X0121868Y0107946D01*
X0121815Y0107940D01*
X0121763Y0107938D01*
X0122304Y0105637D02*
X0122304Y0102554D01*
X0122305Y0102554D02*
X0122303Y0102506D01*
X0122297Y0102457D01*
X0122288Y0102410D01*
X0122275Y0102363D01*
X0122258Y0102318D01*
X0122238Y0102274D01*
X0122214Y0102232D01*
X0122187Y0102191D01*
X0122157Y0102153D01*
X0122124Y0102118D01*
X0122089Y0102085D01*
X0122051Y0102055D01*
X0122010Y0102028D01*
X0121968Y0102004D01*
X0121924Y0101984D01*
X0121879Y0101967D01*
X0121832Y0101954D01*
X0121785Y0101945D01*
X0121736Y0101939D01*
X0121688Y0101937D01*
X0120452Y0101937D02*
X0120452Y0104404D01*
X0120349Y0105432D02*
X0120554Y0105432D01*
X0120554Y0105637D01*
X0120349Y0105637D01*
X0120349Y0105432D01*
X0118373Y0104404D02*
X0117551Y0104404D01*
X0118373Y0104404D02*
X0118421Y0104402D01*
X0118470Y0104396D01*
X0118517Y0104387D01*
X0118564Y0104374D01*
X0118609Y0104357D01*
X0118653Y0104337D01*
X0118695Y0104313D01*
X0118736Y0104286D01*
X0118774Y0104256D01*
X0118809Y0104223D01*
X0118842Y0104188D01*
X0118872Y0104150D01*
X0118899Y0104109D01*
X0118923Y0104067D01*
X0118943Y0104023D01*
X0118960Y0103978D01*
X0118973Y0103931D01*
X0118982Y0103884D01*
X0118988Y0103835D01*
X0118990Y0103787D01*
X0118990Y0102554D01*
X0118988Y0102506D01*
X0118982Y0102457D01*
X0118973Y0102410D01*
X0118960Y0102363D01*
X0118943Y0102318D01*
X0118923Y0102274D01*
X0118899Y0102232D01*
X0118872Y0102191D01*
X0118842Y0102153D01*
X0118809Y0102118D01*
X0118774Y0102085D01*
X0118736Y0102055D01*
X0118695Y0102028D01*
X0118653Y0102004D01*
X0118609Y0101984D01*
X0118564Y0101967D01*
X0118517Y0101954D01*
X0118470Y0101945D01*
X0118421Y0101939D01*
X0118373Y0101937D01*
X0117551Y0101937D01*
X0115532Y0101937D02*
X0114607Y0101937D01*
X0114607Y0103787D01*
X0114607Y0103376D02*
X0115532Y0103376D01*
X0114607Y0103787D02*
X0114609Y0103835D01*
X0114615Y0103884D01*
X0114624Y0103931D01*
X0114637Y0103978D01*
X0114654Y0104023D01*
X0114674Y0104067D01*
X0114698Y0104109D01*
X0114725Y0104150D01*
X0114755Y0104188D01*
X0114788Y0104223D01*
X0114823Y0104256D01*
X0114861Y0104286D01*
X0114902Y0104313D01*
X0114944Y0104337D01*
X0114988Y0104357D01*
X0115033Y0104374D01*
X0115080Y0104387D01*
X0115127Y0104396D01*
X0115176Y0104402D01*
X0115224Y0104404D01*
X0116046Y0104404D01*
X0112685Y0103376D02*
X0111658Y0102965D01*
X0111617Y0102946D01*
X0111578Y0102925D01*
X0111541Y0102900D01*
X0111506Y0102872D01*
X0111473Y0102841D01*
X0111443Y0102807D01*
X0111417Y0102772D01*
X0111393Y0102734D01*
X0111372Y0102694D01*
X0111355Y0102652D01*
X0111342Y0102610D01*
X0111332Y0102566D01*
X0111326Y0102522D01*
X0111323Y0102477D01*
X0111324Y0102432D01*
X0111329Y0102388D01*
X0111338Y0102344D01*
X0111351Y0102301D01*
X0111367Y0102259D01*
X0111386Y0102218D01*
X0111409Y0102180D01*
X0111435Y0102143D01*
X0111464Y0102109D01*
X0111496Y0102077D01*
X0111530Y0102048D01*
X0111566Y0102023D01*
X0111605Y0102000D01*
X0111645Y0101980D01*
X0111687Y0101964D01*
X0111730Y0101952D01*
X0111774Y0101943D01*
X0111819Y0101938D01*
X0111864Y0101937D01*
X0111555Y0104198D02*
X0111643Y0104236D01*
X0111732Y0104269D01*
X0111822Y0104299D01*
X0111914Y0104326D01*
X0112007Y0104348D01*
X0112100Y0104367D01*
X0112194Y0104382D01*
X0112289Y0104393D01*
X0112384Y0104400D01*
X0112480Y0104404D01*
X0112479Y0104404D02*
X0112524Y0104403D01*
X0112569Y0104398D01*
X0112613Y0104389D01*
X0112656Y0104377D01*
X0112698Y0104361D01*
X0112738Y0104341D01*
X0112777Y0104318D01*
X0112813Y0104293D01*
X0112847Y0104264D01*
X0112879Y0104232D01*
X0112908Y0104198D01*
X0112934Y0104161D01*
X0112957Y0104123D01*
X0112976Y0104082D01*
X0112992Y0104040D01*
X0113005Y0103997D01*
X0113014Y0103953D01*
X0113019Y0103909D01*
X0113020Y0103864D01*
X0113017Y0103819D01*
X0113011Y0103775D01*
X0113001Y0103731D01*
X0112988Y0103689D01*
X0112971Y0103647D01*
X0112950Y0103607D01*
X0112926Y0103569D01*
X0112900Y0103534D01*
X0112870Y0103500D01*
X0112837Y0103469D01*
X0112802Y0103441D01*
X0112765Y0103416D01*
X0112726Y0103395D01*
X0112685Y0103376D01*
X0110176Y0104404D02*
X0108943Y0104404D01*
X0109765Y0105637D02*
X0109765Y0102554D01*
X0109766Y0102554D02*
X0109764Y0102506D01*
X0109758Y0102457D01*
X0109749Y0102410D01*
X0109736Y0102363D01*
X0109719Y0102318D01*
X0109699Y0102274D01*
X0109675Y0102232D01*
X0109648Y0102191D01*
X0109618Y0102153D01*
X0109585Y0102118D01*
X0109550Y0102085D01*
X0109512Y0102055D01*
X0109471Y0102028D01*
X0109429Y0102004D01*
X0109385Y0101984D01*
X0109340Y0101967D01*
X0109293Y0101954D01*
X0109246Y0101945D01*
X0109197Y0101939D01*
X0109149Y0101937D01*
X0108943Y0101937D01*
X0107454Y0101937D02*
X0107454Y0104404D01*
X0106220Y0104404D01*
X0106220Y0103993D01*
X0105074Y0103582D02*
X0105074Y0102760D01*
X0105072Y0102704D01*
X0105066Y0102648D01*
X0105057Y0102593D01*
X0105044Y0102538D01*
X0105027Y0102485D01*
X0105006Y0102433D01*
X0104982Y0102382D01*
X0104954Y0102333D01*
X0104924Y0102286D01*
X0104890Y0102241D01*
X0104853Y0102199D01*
X0104813Y0102159D01*
X0104771Y0102122D01*
X0104726Y0102088D01*
X0104679Y0102058D01*
X0104630Y0102030D01*
X0104579Y0102006D01*
X0104527Y0101985D01*
X0104474Y0101968D01*
X0104419Y0101955D01*
X0104364Y0101946D01*
X0104308Y0101940D01*
X0104252Y0101938D01*
X0104196Y0101940D01*
X0104140Y0101946D01*
X0104085Y0101955D01*
X0104030Y0101968D01*
X0103977Y0101985D01*
X0103925Y0102006D01*
X0103874Y0102030D01*
X0103825Y0102058D01*
X0103778Y0102088D01*
X0103733Y0102122D01*
X0103691Y0102159D01*
X0103651Y0102199D01*
X0103614Y0102241D01*
X0103580Y0102286D01*
X0103550Y0102333D01*
X0103522Y0102382D01*
X0103498Y0102433D01*
X0103477Y0102485D01*
X0103460Y0102538D01*
X0103447Y0102593D01*
X0103438Y0102648D01*
X0103432Y0102704D01*
X0103430Y0102760D01*
X0103429Y0102760D02*
X0103429Y0103582D01*
X0103430Y0103582D02*
X0103432Y0103638D01*
X0103438Y0103694D01*
X0103447Y0103749D01*
X0103460Y0103804D01*
X0103477Y0103857D01*
X0103498Y0103909D01*
X0103522Y0103960D01*
X0103550Y0104009D01*
X0103580Y0104056D01*
X0103614Y0104101D01*
X0103651Y0104143D01*
X0103691Y0104183D01*
X0103733Y0104220D01*
X0103778Y0104254D01*
X0103825Y0104284D01*
X0103874Y0104312D01*
X0103925Y0104336D01*
X0103977Y0104357D01*
X0104030Y0104374D01*
X0104085Y0104387D01*
X0104140Y0104396D01*
X0104196Y0104402D01*
X0104252Y0104404D01*
X0104308Y0104402D01*
X0104364Y0104396D01*
X0104419Y0104387D01*
X0104474Y0104374D01*
X0104527Y0104357D01*
X0104579Y0104336D01*
X0104630Y0104312D01*
X0104679Y0104284D01*
X0104726Y0104254D01*
X0104771Y0104220D01*
X0104813Y0104183D01*
X0104853Y0104143D01*
X0104890Y0104101D01*
X0104924Y0104056D01*
X0104954Y0104009D01*
X0104982Y0103960D01*
X0105006Y0103909D01*
X0105027Y0103857D01*
X0105044Y0103804D01*
X0105057Y0103749D01*
X0105066Y0103694D01*
X0105072Y0103638D01*
X0105074Y0103582D01*
X0102074Y0102143D02*
X0101869Y0102143D01*
X0101869Y0101937D01*
X0102074Y0101937D01*
X0102074Y0102143D01*
X0100510Y0102554D02*
X0100510Y0103787D01*
X0100508Y0103835D01*
X0100502Y0103884D01*
X0100493Y0103931D01*
X0100480Y0103978D01*
X0100463Y0104023D01*
X0100443Y0104067D01*
X0100419Y0104109D01*
X0100392Y0104150D01*
X0100362Y0104188D01*
X0100329Y0104223D01*
X0100294Y0104256D01*
X0100256Y0104286D01*
X0100215Y0104313D01*
X0100173Y0104337D01*
X0100129Y0104357D01*
X0100084Y0104374D01*
X0100037Y0104387D01*
X0099990Y0104396D01*
X0099941Y0104402D01*
X0099893Y0104404D01*
X0099071Y0104404D01*
X0097754Y0103582D02*
X0097754Y0102760D01*
X0097752Y0102704D01*
X0097746Y0102648D01*
X0097737Y0102593D01*
X0097724Y0102538D01*
X0097707Y0102485D01*
X0097686Y0102433D01*
X0097662Y0102382D01*
X0097634Y0102333D01*
X0097604Y0102286D01*
X0097570Y0102241D01*
X0097533Y0102199D01*
X0097493Y0102159D01*
X0097451Y0102122D01*
X0097406Y0102088D01*
X0097359Y0102058D01*
X0097310Y0102030D01*
X0097259Y0102006D01*
X0097207Y0101985D01*
X0097154Y0101968D01*
X0097099Y0101955D01*
X0097044Y0101946D01*
X0096988Y0101940D01*
X0096932Y0101938D01*
X0096876Y0101940D01*
X0096820Y0101946D01*
X0096765Y0101955D01*
X0096710Y0101968D01*
X0096657Y0101985D01*
X0096605Y0102006D01*
X0096554Y0102030D01*
X0096505Y0102058D01*
X0096458Y0102088D01*
X0096413Y0102122D01*
X0096371Y0102159D01*
X0096331Y0102199D01*
X0096294Y0102241D01*
X0096260Y0102286D01*
X0096230Y0102333D01*
X0096202Y0102382D01*
X0096178Y0102433D01*
X0096157Y0102485D01*
X0096140Y0102538D01*
X0096127Y0102593D01*
X0096118Y0102648D01*
X0096112Y0102704D01*
X0096110Y0102760D01*
X0096109Y0102760D02*
X0096109Y0103582D01*
X0096110Y0103582D02*
X0096112Y0103638D01*
X0096118Y0103694D01*
X0096127Y0103749D01*
X0096140Y0103804D01*
X0096157Y0103857D01*
X0096178Y0103909D01*
X0096202Y0103960D01*
X0096230Y0104009D01*
X0096260Y0104056D01*
X0096294Y0104101D01*
X0096331Y0104143D01*
X0096371Y0104183D01*
X0096413Y0104220D01*
X0096458Y0104254D01*
X0096505Y0104284D01*
X0096554Y0104312D01*
X0096605Y0104336D01*
X0096657Y0104357D01*
X0096710Y0104374D01*
X0096765Y0104387D01*
X0096820Y0104396D01*
X0096876Y0104402D01*
X0096932Y0104404D01*
X0096988Y0104402D01*
X0097044Y0104396D01*
X0097099Y0104387D01*
X0097154Y0104374D01*
X0097207Y0104357D01*
X0097259Y0104336D01*
X0097310Y0104312D01*
X0097359Y0104284D01*
X0097406Y0104254D01*
X0097451Y0104220D01*
X0097493Y0104183D01*
X0097533Y0104143D01*
X0097570Y0104101D01*
X0097604Y0104056D01*
X0097634Y0104009D01*
X0097662Y0103960D01*
X0097686Y0103909D01*
X0097707Y0103857D01*
X0097724Y0103804D01*
X0097737Y0103749D01*
X0097746Y0103694D01*
X0097752Y0103638D01*
X0097754Y0103582D01*
X0099071Y0101937D02*
X0099893Y0101937D01*
X0099941Y0101939D01*
X0099990Y0101945D01*
X0100037Y0101954D01*
X0100084Y0101967D01*
X0100129Y0101984D01*
X0100173Y0102004D01*
X0100215Y0102028D01*
X0100256Y0102055D01*
X0100294Y0102085D01*
X0100329Y0102118D01*
X0100362Y0102153D01*
X0100392Y0102191D01*
X0100419Y0102232D01*
X0100443Y0102274D01*
X0100463Y0102318D01*
X0100480Y0102363D01*
X0100493Y0102410D01*
X0100502Y0102457D01*
X0100508Y0102506D01*
X0100510Y0102554D01*
X0094445Y0101937D02*
X0094445Y0104404D01*
X0092595Y0104404D01*
X0092547Y0104402D01*
X0092498Y0104396D01*
X0092451Y0104387D01*
X0092404Y0104374D01*
X0092359Y0104357D01*
X0092315Y0104337D01*
X0092273Y0104313D01*
X0092232Y0104286D01*
X0092194Y0104256D01*
X0092159Y0104223D01*
X0092126Y0104188D01*
X0092096Y0104150D01*
X0092069Y0104109D01*
X0092045Y0104067D01*
X0092025Y0104023D01*
X0092008Y0103978D01*
X0091995Y0103931D01*
X0091986Y0103884D01*
X0091980Y0103835D01*
X0091978Y0103787D01*
X0091978Y0101937D01*
X0093212Y0101937D02*
X0093212Y0104404D01*
X0093180Y0107937D02*
X0092974Y0107937D01*
X0093180Y0107937D02*
X0093228Y0107939D01*
X0093277Y0107945D01*
X0093324Y0107954D01*
X0093371Y0107967D01*
X0093416Y0107984D01*
X0093460Y0108004D01*
X0093502Y0108028D01*
X0093543Y0108055D01*
X0093581Y0108085D01*
X0093616Y0108118D01*
X0093649Y0108153D01*
X0093679Y0108191D01*
X0093706Y0108232D01*
X0093730Y0108274D01*
X0093750Y0108318D01*
X0093767Y0108363D01*
X0093780Y0108410D01*
X0093789Y0108457D01*
X0093795Y0108506D01*
X0093797Y0108554D01*
X0093797Y0111637D01*
X0094208Y0110404D02*
X0092974Y0110404D01*
X0091485Y0110404D02*
X0090252Y0110404D01*
X0090252Y0109993D01*
X0089105Y0109582D02*
X0089105Y0108760D01*
X0089103Y0108704D01*
X0089097Y0108648D01*
X0089088Y0108593D01*
X0089075Y0108538D01*
X0089058Y0108485D01*
X0089037Y0108433D01*
X0089013Y0108382D01*
X0088985Y0108333D01*
X0088955Y0108286D01*
X0088921Y0108241D01*
X0088884Y0108199D01*
X0088844Y0108159D01*
X0088802Y0108122D01*
X0088757Y0108088D01*
X0088710Y0108058D01*
X0088661Y0108030D01*
X0088610Y0108006D01*
X0088558Y0107985D01*
X0088505Y0107968D01*
X0088450Y0107955D01*
X0088395Y0107946D01*
X0088339Y0107940D01*
X0088283Y0107938D01*
X0088227Y0107940D01*
X0088171Y0107946D01*
X0088116Y0107955D01*
X0088061Y0107968D01*
X0088008Y0107985D01*
X0087956Y0108006D01*
X0087905Y0108030D01*
X0087856Y0108058D01*
X0087809Y0108088D01*
X0087764Y0108122D01*
X0087722Y0108159D01*
X0087682Y0108199D01*
X0087645Y0108241D01*
X0087611Y0108286D01*
X0087581Y0108333D01*
X0087553Y0108382D01*
X0087529Y0108433D01*
X0087508Y0108485D01*
X0087491Y0108538D01*
X0087478Y0108593D01*
X0087469Y0108648D01*
X0087463Y0108704D01*
X0087461Y0108760D01*
X0087461Y0109582D01*
X0087463Y0109638D01*
X0087469Y0109694D01*
X0087478Y0109749D01*
X0087491Y0109804D01*
X0087508Y0109857D01*
X0087529Y0109909D01*
X0087553Y0109960D01*
X0087581Y0110009D01*
X0087611Y0110056D01*
X0087645Y0110101D01*
X0087682Y0110143D01*
X0087722Y0110183D01*
X0087764Y0110220D01*
X0087809Y0110254D01*
X0087856Y0110284D01*
X0087905Y0110312D01*
X0087956Y0110336D01*
X0088008Y0110357D01*
X0088061Y0110374D01*
X0088116Y0110387D01*
X0088171Y0110396D01*
X0088227Y0110402D01*
X0088283Y0110404D01*
X0088339Y0110402D01*
X0088395Y0110396D01*
X0088450Y0110387D01*
X0088505Y0110374D01*
X0088558Y0110357D01*
X0088610Y0110336D01*
X0088661Y0110312D01*
X0088710Y0110284D01*
X0088757Y0110254D01*
X0088802Y0110220D01*
X0088844Y0110183D01*
X0088884Y0110143D01*
X0088921Y0110101D01*
X0088955Y0110056D01*
X0088985Y0110009D01*
X0089013Y0109960D01*
X0089037Y0109909D01*
X0089058Y0109857D01*
X0089075Y0109804D01*
X0089088Y0109749D01*
X0089097Y0109694D01*
X0089103Y0109638D01*
X0089105Y0109582D01*
X0091485Y0110404D02*
X0091485Y0107937D01*
X0095689Y0108965D02*
X0096717Y0109376D01*
X0096758Y0109395D01*
X0096797Y0109416D01*
X0096834Y0109441D01*
X0096869Y0109469D01*
X0096902Y0109500D01*
X0096932Y0109534D01*
X0096958Y0109569D01*
X0096982Y0109607D01*
X0097003Y0109647D01*
X0097020Y0109689D01*
X0097033Y0109731D01*
X0097043Y0109775D01*
X0097049Y0109819D01*
X0097052Y0109864D01*
X0097051Y0109909D01*
X0097046Y0109953D01*
X0097037Y0109997D01*
X0097024Y0110040D01*
X0097008Y0110082D01*
X0096989Y0110123D01*
X0096966Y0110161D01*
X0096940Y0110198D01*
X0096911Y0110232D01*
X0096879Y0110264D01*
X0096845Y0110293D01*
X0096809Y0110318D01*
X0096770Y0110341D01*
X0096730Y0110361D01*
X0096688Y0110377D01*
X0096645Y0110389D01*
X0096601Y0110398D01*
X0096556Y0110403D01*
X0096511Y0110404D01*
X0097025Y0108143D02*
X0096916Y0108106D01*
X0096806Y0108072D01*
X0096694Y0108042D01*
X0096582Y0108016D01*
X0096469Y0107993D01*
X0096355Y0107974D01*
X0096240Y0107959D01*
X0096125Y0107948D01*
X0096010Y0107941D01*
X0095895Y0107937D01*
X0095850Y0107938D01*
X0095805Y0107943D01*
X0095761Y0107952D01*
X0095718Y0107964D01*
X0095676Y0107980D01*
X0095636Y0108000D01*
X0095597Y0108023D01*
X0095561Y0108048D01*
X0095527Y0108077D01*
X0095495Y0108109D01*
X0095466Y0108143D01*
X0095440Y0108180D01*
X0095417Y0108218D01*
X0095398Y0108259D01*
X0095382Y0108301D01*
X0095369Y0108344D01*
X0095360Y0108388D01*
X0095355Y0108432D01*
X0095354Y0108477D01*
X0095357Y0108522D01*
X0095363Y0108566D01*
X0095373Y0108610D01*
X0095386Y0108652D01*
X0095403Y0108694D01*
X0095424Y0108734D01*
X0095448Y0108772D01*
X0095474Y0108807D01*
X0095504Y0108841D01*
X0095537Y0108872D01*
X0095572Y0108900D01*
X0095609Y0108925D01*
X0095648Y0108946D01*
X0095689Y0108965D01*
X0095587Y0110198D02*
X0095675Y0110236D01*
X0095764Y0110269D01*
X0095854Y0110299D01*
X0095946Y0110326D01*
X0096039Y0110348D01*
X0096132Y0110367D01*
X0096226Y0110382D01*
X0096321Y0110393D01*
X0096416Y0110400D01*
X0096512Y0110404D01*
X0098639Y0109787D02*
X0098639Y0107937D01*
X0099564Y0107937D01*
X0099564Y0107938D02*
X0099616Y0107940D01*
X0099669Y0107946D01*
X0099720Y0107955D01*
X0099771Y0107968D01*
X0099821Y0107985D01*
X0099869Y0108006D01*
X0099916Y0108030D01*
X0099961Y0108057D01*
X0100003Y0108088D01*
X0100044Y0108122D01*
X0100082Y0108158D01*
X0100117Y0108197D01*
X0100149Y0108239D01*
X0100178Y0108282D01*
X0100203Y0108328D01*
X0100226Y0108376D01*
X0100244Y0108425D01*
X0100260Y0108475D01*
X0100271Y0108526D01*
X0100279Y0108578D01*
X0100283Y0108631D01*
X0100283Y0108683D01*
X0100279Y0108736D01*
X0100271Y0108788D01*
X0100260Y0108839D01*
X0100244Y0108889D01*
X0100226Y0108938D01*
X0100203Y0108986D01*
X0100178Y0109032D01*
X0100149Y0109075D01*
X0100117Y0109117D01*
X0100082Y0109156D01*
X0100044Y0109192D01*
X0100003Y0109226D01*
X0099961Y0109257D01*
X0099916Y0109284D01*
X0099869Y0109308D01*
X0099821Y0109329D01*
X0099771Y0109346D01*
X0099720Y0109359D01*
X0099669Y0109368D01*
X0099616Y0109374D01*
X0099564Y0109376D01*
X0098639Y0109376D01*
X0098638Y0109787D02*
X0098640Y0109835D01*
X0098646Y0109884D01*
X0098655Y0109931D01*
X0098668Y0109978D01*
X0098685Y0110023D01*
X0098705Y0110067D01*
X0098729Y0110109D01*
X0098756Y0110150D01*
X0098786Y0110188D01*
X0098819Y0110223D01*
X0098854Y0110256D01*
X0098892Y0110286D01*
X0098933Y0110313D01*
X0098975Y0110337D01*
X0099019Y0110357D01*
X0099064Y0110374D01*
X0099111Y0110387D01*
X0099158Y0110396D01*
X0099207Y0110402D01*
X0099255Y0110404D01*
X0100077Y0110404D01*
X0101582Y0110404D02*
X0102404Y0110404D01*
X0102452Y0110402D01*
X0102501Y0110396D01*
X0102548Y0110387D01*
X0102595Y0110374D01*
X0102640Y0110357D01*
X0102684Y0110337D01*
X0102726Y0110313D01*
X0102767Y0110286D01*
X0102805Y0110256D01*
X0102840Y0110223D01*
X0102873Y0110188D01*
X0102903Y0110150D01*
X0102930Y0110109D01*
X0102954Y0110067D01*
X0102974Y0110023D01*
X0102991Y0109978D01*
X0103004Y0109931D01*
X0103013Y0109884D01*
X0103019Y0109835D01*
X0103021Y0109787D01*
X0103021Y0108554D01*
X0103019Y0108506D01*
X0103013Y0108457D01*
X0103004Y0108410D01*
X0102991Y0108363D01*
X0102974Y0108318D01*
X0102954Y0108274D01*
X0102930Y0108232D01*
X0102903Y0108191D01*
X0102873Y0108153D01*
X0102840Y0108118D01*
X0102805Y0108085D01*
X0102767Y0108055D01*
X0102726Y0108028D01*
X0102684Y0108004D01*
X0102640Y0107984D01*
X0102595Y0107967D01*
X0102548Y0107954D01*
X0102501Y0107945D01*
X0102452Y0107939D01*
X0102404Y0107937D01*
X0101582Y0107937D01*
X0104483Y0107937D02*
X0104483Y0110404D01*
X0104380Y0111432D02*
X0104586Y0111432D01*
X0104586Y0111637D01*
X0104380Y0111637D01*
X0104380Y0111432D01*
X0107424Y0111637D02*
X0107424Y0107937D01*
X0105779Y0107937D01*
X0111101Y0107937D02*
X0111101Y0109787D01*
X0111100Y0109787D02*
X0111102Y0109835D01*
X0111108Y0109884D01*
X0111117Y0109931D01*
X0111130Y0109978D01*
X0111147Y0110023D01*
X0111167Y0110067D01*
X0111191Y0110109D01*
X0111218Y0110150D01*
X0111248Y0110188D01*
X0111281Y0110223D01*
X0111316Y0110256D01*
X0111354Y0110286D01*
X0111395Y0110313D01*
X0111437Y0110337D01*
X0111481Y0110357D01*
X0111526Y0110374D01*
X0111573Y0110387D01*
X0111620Y0110396D01*
X0111669Y0110402D01*
X0111717Y0110404D01*
X0112745Y0110404D01*
X0112745Y0107937D01*
X0114341Y0107937D02*
X0115368Y0107937D01*
X0115416Y0107939D01*
X0115465Y0107945D01*
X0115512Y0107954D01*
X0115559Y0107967D01*
X0115604Y0107984D01*
X0115648Y0108004D01*
X0115690Y0108028D01*
X0115731Y0108055D01*
X0115769Y0108085D01*
X0115804Y0108118D01*
X0115837Y0108153D01*
X0115867Y0108191D01*
X0115894Y0108232D01*
X0115918Y0108274D01*
X0115938Y0108318D01*
X0115955Y0108363D01*
X0115968Y0108410D01*
X0115977Y0108457D01*
X0115983Y0108506D01*
X0115985Y0108554D01*
X0115985Y0109582D01*
X0115985Y0109171D02*
X0114341Y0109171D01*
X0114341Y0109582D01*
X0114343Y0109638D01*
X0114349Y0109694D01*
X0114358Y0109749D01*
X0114371Y0109804D01*
X0114388Y0109857D01*
X0114409Y0109909D01*
X0114433Y0109960D01*
X0114461Y0110009D01*
X0114491Y0110056D01*
X0114525Y0110101D01*
X0114562Y0110143D01*
X0114602Y0110183D01*
X0114644Y0110220D01*
X0114689Y0110254D01*
X0114736Y0110284D01*
X0114785Y0110312D01*
X0114836Y0110336D01*
X0114888Y0110357D01*
X0114941Y0110374D01*
X0114996Y0110387D01*
X0115051Y0110396D01*
X0115107Y0110402D01*
X0115163Y0110404D01*
X0115219Y0110402D01*
X0115275Y0110396D01*
X0115330Y0110387D01*
X0115385Y0110374D01*
X0115438Y0110357D01*
X0115490Y0110336D01*
X0115541Y0110312D01*
X0115590Y0110284D01*
X0115637Y0110254D01*
X0115682Y0110220D01*
X0115724Y0110183D01*
X0115764Y0110143D01*
X0115801Y0110101D01*
X0115835Y0110056D01*
X0115865Y0110009D01*
X0115893Y0109960D01*
X0115917Y0109909D01*
X0115938Y0109857D01*
X0115955Y0109804D01*
X0115968Y0109749D01*
X0115977Y0109694D01*
X0115983Y0109638D01*
X0115985Y0109582D01*
X0117598Y0110404D02*
X0118626Y0110404D01*
X0118674Y0110402D01*
X0118723Y0110396D01*
X0118770Y0110387D01*
X0118817Y0110374D01*
X0118862Y0110357D01*
X0118906Y0110337D01*
X0118948Y0110313D01*
X0118989Y0110286D01*
X0119027Y0110256D01*
X0119062Y0110223D01*
X0119095Y0110188D01*
X0119125Y0110150D01*
X0119152Y0110109D01*
X0119176Y0110067D01*
X0119196Y0110023D01*
X0119213Y0109978D01*
X0119226Y0109931D01*
X0119235Y0109884D01*
X0119241Y0109835D01*
X0119243Y0109787D01*
X0119243Y0108554D01*
X0119241Y0108506D01*
X0119235Y0108457D01*
X0119226Y0108410D01*
X0119213Y0108363D01*
X0119196Y0108318D01*
X0119176Y0108274D01*
X0119152Y0108232D01*
X0119125Y0108191D01*
X0119095Y0108153D01*
X0119062Y0108118D01*
X0119027Y0108085D01*
X0118989Y0108055D01*
X0118948Y0108028D01*
X0118906Y0108004D01*
X0118862Y0107984D01*
X0118817Y0107967D01*
X0118770Y0107954D01*
X0118723Y0107945D01*
X0118674Y0107939D01*
X0118626Y0107937D01*
X0117598Y0107937D01*
X0117598Y0111637D01*
X0112993Y0102143D02*
X0112884Y0102106D01*
X0112774Y0102072D01*
X0112662Y0102042D01*
X0112550Y0102016D01*
X0112437Y0101993D01*
X0112323Y0101974D01*
X0112208Y0101959D01*
X0112093Y0101948D01*
X0111978Y0101941D01*
X0111863Y0101937D01*
X0115532Y0101938D02*
X0115584Y0101940D01*
X0115637Y0101946D01*
X0115688Y0101955D01*
X0115739Y0101968D01*
X0115789Y0101985D01*
X0115837Y0102006D01*
X0115884Y0102030D01*
X0115929Y0102057D01*
X0115971Y0102088D01*
X0116012Y0102122D01*
X0116050Y0102158D01*
X0116085Y0102197D01*
X0116117Y0102239D01*
X0116146Y0102282D01*
X0116171Y0102328D01*
X0116194Y0102376D01*
X0116212Y0102425D01*
X0116228Y0102475D01*
X0116239Y0102526D01*
X0116247Y0102578D01*
X0116251Y0102631D01*
X0116251Y0102683D01*
X0116247Y0102736D01*
X0116239Y0102788D01*
X0116228Y0102839D01*
X0116212Y0102889D01*
X0116194Y0102938D01*
X0116171Y0102986D01*
X0116146Y0103032D01*
X0116117Y0103075D01*
X0116085Y0103117D01*
X0116050Y0103156D01*
X0116012Y0103192D01*
X0115971Y0103226D01*
X0115929Y0103257D01*
X0115884Y0103284D01*
X0115837Y0103308D01*
X0115789Y0103329D01*
X0115739Y0103346D01*
X0115688Y0103359D01*
X0115637Y0103368D01*
X0115584Y0103374D01*
X0115532Y0103376D01*
X0123949Y0103787D02*
X0123949Y0101937D01*
X0125594Y0101937D02*
X0125594Y0104404D01*
X0124566Y0104404D01*
X0124518Y0104402D01*
X0124469Y0104396D01*
X0124422Y0104387D01*
X0124375Y0104374D01*
X0124330Y0104357D01*
X0124286Y0104337D01*
X0124244Y0104313D01*
X0124203Y0104286D01*
X0124165Y0104256D01*
X0124130Y0104223D01*
X0124097Y0104188D01*
X0124067Y0104150D01*
X0124040Y0104109D01*
X0124016Y0104067D01*
X0123996Y0104023D01*
X0123979Y0103978D01*
X0123966Y0103931D01*
X0123957Y0103884D01*
X0123951Y0103835D01*
X0123949Y0103787D01*
X0127189Y0103582D02*
X0127189Y0103171D01*
X0128834Y0103171D01*
X0128834Y0103582D02*
X0128834Y0102554D01*
X0128832Y0102506D01*
X0128826Y0102457D01*
X0128817Y0102410D01*
X0128804Y0102363D01*
X0128787Y0102318D01*
X0128767Y0102274D01*
X0128743Y0102232D01*
X0128716Y0102191D01*
X0128686Y0102153D01*
X0128653Y0102118D01*
X0128618Y0102085D01*
X0128580Y0102055D01*
X0128539Y0102028D01*
X0128497Y0102004D01*
X0128453Y0101984D01*
X0128408Y0101967D01*
X0128361Y0101954D01*
X0128314Y0101945D01*
X0128265Y0101939D01*
X0128217Y0101937D01*
X0127189Y0101937D01*
X0127189Y0103582D02*
X0127191Y0103638D01*
X0127197Y0103694D01*
X0127206Y0103749D01*
X0127219Y0103804D01*
X0127236Y0103857D01*
X0127257Y0103909D01*
X0127281Y0103960D01*
X0127309Y0104009D01*
X0127339Y0104056D01*
X0127373Y0104101D01*
X0127410Y0104143D01*
X0127450Y0104183D01*
X0127492Y0104220D01*
X0127537Y0104254D01*
X0127584Y0104284D01*
X0127633Y0104312D01*
X0127684Y0104336D01*
X0127736Y0104357D01*
X0127789Y0104374D01*
X0127844Y0104387D01*
X0127899Y0104396D01*
X0127955Y0104402D01*
X0128011Y0104404D01*
X0128067Y0104402D01*
X0128123Y0104396D01*
X0128178Y0104387D01*
X0128233Y0104374D01*
X0128286Y0104357D01*
X0128338Y0104336D01*
X0128389Y0104312D01*
X0128438Y0104284D01*
X0128485Y0104254D01*
X0128530Y0104220D01*
X0128572Y0104183D01*
X0128612Y0104143D01*
X0128649Y0104101D01*
X0128683Y0104056D01*
X0128713Y0104009D01*
X0128741Y0103960D01*
X0128765Y0103909D01*
X0128786Y0103857D01*
X0128803Y0103804D01*
X0128816Y0103749D01*
X0128825Y0103694D01*
X0128831Y0103638D01*
X0128833Y0103582D01*
X0130447Y0104404D02*
X0131475Y0104404D01*
X0131523Y0104402D01*
X0131572Y0104396D01*
X0131619Y0104387D01*
X0131666Y0104374D01*
X0131711Y0104357D01*
X0131755Y0104337D01*
X0131797Y0104313D01*
X0131838Y0104286D01*
X0131876Y0104256D01*
X0131911Y0104223D01*
X0131944Y0104188D01*
X0131974Y0104150D01*
X0132001Y0104109D01*
X0132025Y0104067D01*
X0132045Y0104023D01*
X0132062Y0103978D01*
X0132075Y0103931D01*
X0132084Y0103884D01*
X0132090Y0103835D01*
X0132092Y0103787D01*
X0132092Y0102554D01*
X0132090Y0102506D01*
X0132084Y0102457D01*
X0132075Y0102410D01*
X0132062Y0102363D01*
X0132045Y0102318D01*
X0132025Y0102274D01*
X0132001Y0102232D01*
X0131974Y0102191D01*
X0131944Y0102153D01*
X0131911Y0102118D01*
X0131876Y0102085D01*
X0131838Y0102055D01*
X0131797Y0102028D01*
X0131755Y0102004D01*
X0131711Y0101984D01*
X0131666Y0101967D01*
X0131619Y0101954D01*
X0131572Y0101945D01*
X0131523Y0101939D01*
X0131475Y0101937D01*
X0130447Y0101937D01*
X0130447Y0105637D01*
X0133687Y0103787D02*
X0133687Y0101937D01*
X0134612Y0101937D01*
X0134612Y0101938D02*
X0134664Y0101940D01*
X0134717Y0101946D01*
X0134768Y0101955D01*
X0134819Y0101968D01*
X0134869Y0101985D01*
X0134917Y0102006D01*
X0134964Y0102030D01*
X0135009Y0102057D01*
X0135051Y0102088D01*
X0135092Y0102122D01*
X0135130Y0102158D01*
X0135165Y0102197D01*
X0135197Y0102239D01*
X0135226Y0102282D01*
X0135251Y0102328D01*
X0135274Y0102376D01*
X0135292Y0102425D01*
X0135308Y0102475D01*
X0135319Y0102526D01*
X0135327Y0102578D01*
X0135331Y0102631D01*
X0135331Y0102683D01*
X0135327Y0102736D01*
X0135319Y0102788D01*
X0135308Y0102839D01*
X0135292Y0102889D01*
X0135274Y0102938D01*
X0135251Y0102986D01*
X0135226Y0103032D01*
X0135197Y0103075D01*
X0135165Y0103117D01*
X0135130Y0103156D01*
X0135092Y0103192D01*
X0135051Y0103226D01*
X0135009Y0103257D01*
X0134964Y0103284D01*
X0134917Y0103308D01*
X0134869Y0103329D01*
X0134819Y0103346D01*
X0134768Y0103359D01*
X0134717Y0103368D01*
X0134664Y0103374D01*
X0134612Y0103376D01*
X0133687Y0103376D01*
X0133687Y0103787D02*
X0133689Y0103835D01*
X0133695Y0103884D01*
X0133704Y0103931D01*
X0133717Y0103978D01*
X0133734Y0104023D01*
X0133754Y0104067D01*
X0133778Y0104109D01*
X0133805Y0104150D01*
X0133835Y0104188D01*
X0133868Y0104223D01*
X0133903Y0104256D01*
X0133941Y0104286D01*
X0133982Y0104313D01*
X0134024Y0104337D01*
X0134068Y0104357D01*
X0134113Y0104374D01*
X0134160Y0104387D01*
X0134207Y0104396D01*
X0134256Y0104402D01*
X0134304Y0104404D01*
X0135126Y0104404D01*
X0136460Y0104404D02*
X0136460Y0103993D01*
X0136460Y0104404D02*
X0137693Y0104404D01*
X0137693Y0101937D01*
X0139291Y0102554D02*
X0139291Y0103787D01*
X0139293Y0103835D01*
X0139299Y0103884D01*
X0139308Y0103931D01*
X0139321Y0103978D01*
X0139338Y0104023D01*
X0139358Y0104067D01*
X0139382Y0104109D01*
X0139409Y0104150D01*
X0139439Y0104188D01*
X0139472Y0104223D01*
X0139507Y0104256D01*
X0139545Y0104286D01*
X0139586Y0104313D01*
X0139628Y0104337D01*
X0139672Y0104357D01*
X0139717Y0104374D01*
X0139764Y0104387D01*
X0139811Y0104396D01*
X0139860Y0104402D01*
X0139908Y0104404D01*
X0140936Y0104404D01*
X0140936Y0105637D02*
X0140936Y0101937D01*
X0139908Y0101937D01*
X0139860Y0101939D01*
X0139811Y0101945D01*
X0139764Y0101954D01*
X0139717Y0101967D01*
X0139672Y0101984D01*
X0139628Y0102004D01*
X0139586Y0102028D01*
X0139545Y0102055D01*
X0139507Y0102085D01*
X0139472Y0102118D01*
X0139439Y0102153D01*
X0139409Y0102191D01*
X0139382Y0102232D01*
X0139358Y0102274D01*
X0139338Y0102318D01*
X0139321Y0102363D01*
X0139308Y0102410D01*
X0139299Y0102457D01*
X0139293Y0102506D01*
X0139291Y0102554D01*
X0142429Y0102143D02*
X0142429Y0101937D01*
X0142634Y0101937D01*
X0142634Y0102143D01*
X0142429Y0102143D01*
X0144555Y0101937D02*
X0145171Y0103582D01*
X0145788Y0101937D01*
X0146405Y0104404D01*
X0147778Y0104404D02*
X0148395Y0101937D01*
X0149011Y0103582D01*
X0149628Y0101937D01*
X0150245Y0104404D01*
X0151618Y0104404D02*
X0152235Y0101937D01*
X0152851Y0103582D01*
X0153468Y0101937D01*
X0154085Y0104404D01*
X0151244Y0107937D02*
X0150422Y0107937D01*
X0151244Y0107937D02*
X0151292Y0107939D01*
X0151341Y0107945D01*
X0151388Y0107954D01*
X0151435Y0107967D01*
X0151480Y0107984D01*
X0151524Y0108004D01*
X0151566Y0108028D01*
X0151607Y0108055D01*
X0151645Y0108085D01*
X0151680Y0108118D01*
X0151713Y0108153D01*
X0151743Y0108191D01*
X0151770Y0108232D01*
X0151794Y0108274D01*
X0151814Y0108318D01*
X0151831Y0108363D01*
X0151844Y0108410D01*
X0151853Y0108457D01*
X0151859Y0108506D01*
X0151861Y0108554D01*
X0151861Y0109787D01*
X0148361Y0109787D02*
X0148363Y0109904D01*
X0148369Y0110021D01*
X0148378Y0110137D01*
X0148392Y0110253D01*
X0148409Y0110369D01*
X0148431Y0110484D01*
X0148456Y0110598D01*
X0148485Y0110711D01*
X0148517Y0110824D01*
X0148553Y0110935D01*
X0148593Y0111045D01*
X0148637Y0111153D01*
X0148684Y0111260D01*
X0148735Y0111366D01*
X0148789Y0111469D01*
X0148847Y0111571D01*
X0148907Y0111671D01*
X0148972Y0111768D01*
X0149039Y0111864D01*
X0149110Y0111957D01*
X0149183Y0112048D01*
X0150422Y0110404D02*
X0151244Y0110404D01*
X0151292Y0110402D01*
X0151341Y0110396D01*
X0151388Y0110387D01*
X0151435Y0110374D01*
X0151480Y0110357D01*
X0151524Y0110337D01*
X0151566Y0110313D01*
X0151607Y0110286D01*
X0151645Y0110256D01*
X0151680Y0110223D01*
X0151713Y0110188D01*
X0151743Y0110150D01*
X0151770Y0110109D01*
X0151794Y0110067D01*
X0151814Y0110023D01*
X0151831Y0109978D01*
X0151844Y0109931D01*
X0151853Y0109884D01*
X0151859Y0109835D01*
X0151861Y0109787D01*
X0148361Y0109787D02*
X0148363Y0109670D01*
X0148369Y0109553D01*
X0148378Y0109437D01*
X0148392Y0109321D01*
X0148409Y0109205D01*
X0148431Y0109090D01*
X0148456Y0108976D01*
X0148485Y0108863D01*
X0148517Y0108750D01*
X0148553Y0108639D01*
X0148593Y0108529D01*
X0148637Y0108421D01*
X0148684Y0108314D01*
X0148735Y0108208D01*
X0148789Y0108105D01*
X0148847Y0108003D01*
X0148907Y0107903D01*
X0148972Y0107806D01*
X0149039Y0107710D01*
X0149110Y0107617D01*
X0149183Y0107526D01*
X0153262Y0107526D02*
X0153335Y0107617D01*
X0153406Y0107710D01*
X0153473Y0107806D01*
X0153538Y0107903D01*
X0153598Y0108003D01*
X0153656Y0108105D01*
X0153710Y0108208D01*
X0153761Y0108314D01*
X0153808Y0108421D01*
X0153852Y0108529D01*
X0153892Y0108639D01*
X0153928Y0108750D01*
X0153960Y0108863D01*
X0153989Y0108976D01*
X0154014Y0109090D01*
X0154036Y0109205D01*
X0154053Y0109321D01*
X0154067Y0109437D01*
X0154076Y0109553D01*
X0154082Y0109670D01*
X0154084Y0109787D01*
X0154085Y0109787D02*
X0154083Y0109904D01*
X0154077Y0110021D01*
X0154068Y0110137D01*
X0154054Y0110253D01*
X0154037Y0110369D01*
X0154015Y0110484D01*
X0153990Y0110598D01*
X0153961Y0110711D01*
X0153929Y0110824D01*
X0153893Y0110935D01*
X0153853Y0111045D01*
X0153809Y0111153D01*
X0153762Y0111260D01*
X0153711Y0111366D01*
X0153657Y0111469D01*
X0153599Y0111571D01*
X0153539Y0111671D01*
X0153474Y0111768D01*
X0153407Y0111864D01*
X0153336Y0111957D01*
X0153263Y0112048D01*
X0143938Y0104404D02*
X0144555Y0101937D01*
X0073770Y0024724D02*
X0072536Y0022668D01*
X0071303Y0024724D01*
X0071303Y0021024D01*
X0069639Y0021846D02*
X0069639Y0022668D01*
X0069638Y0022668D02*
X0069636Y0022724D01*
X0069630Y0022780D01*
X0069621Y0022835D01*
X0069608Y0022890D01*
X0069591Y0022943D01*
X0069570Y0022995D01*
X0069546Y0023046D01*
X0069518Y0023095D01*
X0069488Y0023142D01*
X0069454Y0023187D01*
X0069417Y0023229D01*
X0069377Y0023269D01*
X0069335Y0023306D01*
X0069290Y0023340D01*
X0069243Y0023370D01*
X0069194Y0023398D01*
X0069143Y0023422D01*
X0069091Y0023443D01*
X0069038Y0023460D01*
X0068983Y0023473D01*
X0068928Y0023482D01*
X0068872Y0023488D01*
X0068816Y0023490D01*
X0068760Y0023488D01*
X0068704Y0023482D01*
X0068649Y0023473D01*
X0068594Y0023460D01*
X0068541Y0023443D01*
X0068489Y0023422D01*
X0068438Y0023398D01*
X0068389Y0023370D01*
X0068342Y0023340D01*
X0068297Y0023306D01*
X0068255Y0023269D01*
X0068215Y0023229D01*
X0068178Y0023187D01*
X0068144Y0023142D01*
X0068114Y0023095D01*
X0068086Y0023046D01*
X0068062Y0022995D01*
X0068041Y0022943D01*
X0068024Y0022890D01*
X0068011Y0022835D01*
X0068002Y0022780D01*
X0067996Y0022724D01*
X0067994Y0022668D01*
X0067994Y0021846D01*
X0067996Y0021790D01*
X0068002Y0021734D01*
X0068011Y0021679D01*
X0068024Y0021624D01*
X0068041Y0021571D01*
X0068062Y0021519D01*
X0068086Y0021468D01*
X0068114Y0021419D01*
X0068144Y0021372D01*
X0068178Y0021327D01*
X0068215Y0021285D01*
X0068255Y0021245D01*
X0068297Y0021208D01*
X0068342Y0021174D01*
X0068389Y0021144D01*
X0068438Y0021116D01*
X0068489Y0021092D01*
X0068541Y0021071D01*
X0068594Y0021054D01*
X0068649Y0021041D01*
X0068704Y0021032D01*
X0068760Y0021026D01*
X0068816Y0021024D01*
X0068872Y0021026D01*
X0068928Y0021032D01*
X0068983Y0021041D01*
X0069038Y0021054D01*
X0069091Y0021071D01*
X0069143Y0021092D01*
X0069194Y0021116D01*
X0069243Y0021144D01*
X0069290Y0021174D01*
X0069335Y0021208D01*
X0069377Y0021245D01*
X0069417Y0021285D01*
X0069454Y0021327D01*
X0069488Y0021372D01*
X0069518Y0021419D01*
X0069546Y0021468D01*
X0069570Y0021519D01*
X0069591Y0021571D01*
X0069608Y0021624D01*
X0069621Y0021679D01*
X0069630Y0021734D01*
X0069636Y0021790D01*
X0069638Y0021846D01*
X0066537Y0021641D02*
X0066537Y0022874D01*
X0066535Y0022922D01*
X0066529Y0022971D01*
X0066520Y0023018D01*
X0066507Y0023065D01*
X0066490Y0023110D01*
X0066470Y0023154D01*
X0066446Y0023196D01*
X0066419Y0023237D01*
X0066389Y0023275D01*
X0066356Y0023310D01*
X0066321Y0023343D01*
X0066283Y0023373D01*
X0066242Y0023400D01*
X0066200Y0023424D01*
X0066156Y0023444D01*
X0066111Y0023461D01*
X0066064Y0023474D01*
X0066017Y0023483D01*
X0065968Y0023489D01*
X0065920Y0023491D01*
X0064892Y0023491D01*
X0064892Y0024724D02*
X0064892Y0021024D01*
X0065920Y0021024D01*
X0065968Y0021026D01*
X0066017Y0021032D01*
X0066064Y0021041D01*
X0066111Y0021054D01*
X0066156Y0021071D01*
X0066200Y0021091D01*
X0066242Y0021115D01*
X0066283Y0021142D01*
X0066321Y0021172D01*
X0066356Y0021205D01*
X0066389Y0021240D01*
X0066419Y0021278D01*
X0066446Y0021319D01*
X0066470Y0021361D01*
X0066490Y0021405D01*
X0066507Y0021450D01*
X0066520Y0021497D01*
X0066529Y0021544D01*
X0066535Y0021593D01*
X0066537Y0021641D01*
X0063279Y0021641D02*
X0063279Y0022668D01*
X0063279Y0022257D02*
X0061634Y0022257D01*
X0061634Y0022668D01*
X0061636Y0022724D01*
X0061642Y0022780D01*
X0061651Y0022835D01*
X0061664Y0022890D01*
X0061681Y0022943D01*
X0061702Y0022995D01*
X0061726Y0023046D01*
X0061754Y0023095D01*
X0061784Y0023142D01*
X0061818Y0023187D01*
X0061855Y0023229D01*
X0061895Y0023269D01*
X0061937Y0023306D01*
X0061982Y0023340D01*
X0062029Y0023370D01*
X0062078Y0023398D01*
X0062129Y0023422D01*
X0062181Y0023443D01*
X0062234Y0023460D01*
X0062289Y0023473D01*
X0062344Y0023482D01*
X0062400Y0023488D01*
X0062456Y0023490D01*
X0062512Y0023488D01*
X0062568Y0023482D01*
X0062623Y0023473D01*
X0062678Y0023460D01*
X0062731Y0023443D01*
X0062783Y0023422D01*
X0062834Y0023398D01*
X0062883Y0023370D01*
X0062930Y0023340D01*
X0062975Y0023306D01*
X0063017Y0023269D01*
X0063057Y0023229D01*
X0063094Y0023187D01*
X0063128Y0023142D01*
X0063158Y0023095D01*
X0063186Y0023046D01*
X0063210Y0022995D01*
X0063231Y0022943D01*
X0063248Y0022890D01*
X0063261Y0022835D01*
X0063270Y0022780D01*
X0063276Y0022724D01*
X0063278Y0022668D01*
X0063279Y0021641D02*
X0063277Y0021593D01*
X0063271Y0021544D01*
X0063262Y0021497D01*
X0063249Y0021450D01*
X0063232Y0021405D01*
X0063212Y0021361D01*
X0063188Y0021319D01*
X0063161Y0021278D01*
X0063131Y0021240D01*
X0063098Y0021205D01*
X0063063Y0021172D01*
X0063025Y0021142D01*
X0062984Y0021115D01*
X0062942Y0021091D01*
X0062898Y0021071D01*
X0062853Y0021054D01*
X0062806Y0021041D01*
X0062759Y0021032D01*
X0062710Y0021026D01*
X0062662Y0021024D01*
X0061634Y0021024D01*
X0060109Y0021641D02*
X0060109Y0024724D01*
X0058239Y0023182D02*
X0058034Y0023182D01*
X0058034Y0022977D01*
X0058239Y0022977D01*
X0058239Y0023182D01*
X0060110Y0021641D02*
X0060108Y0021593D01*
X0060102Y0021544D01*
X0060093Y0021497D01*
X0060080Y0021450D01*
X0060063Y0021405D01*
X0060043Y0021361D01*
X0060019Y0021319D01*
X0059992Y0021278D01*
X0059962Y0021240D01*
X0059929Y0021205D01*
X0059894Y0021172D01*
X0059856Y0021142D01*
X0059815Y0021115D01*
X0059773Y0021091D01*
X0059729Y0021071D01*
X0059684Y0021054D01*
X0059637Y0021041D01*
X0059590Y0021032D01*
X0059541Y0021026D01*
X0059493Y0021024D01*
X0058239Y0021332D02*
X0058034Y0021332D01*
X0058034Y0021538D01*
X0058239Y0021538D01*
X0058239Y0021332D01*
X0054433Y0021024D02*
X0054433Y0024724D01*
X0053405Y0024724D01*
X0053342Y0024722D01*
X0053279Y0024716D01*
X0053216Y0024706D01*
X0053154Y0024693D01*
X0053093Y0024676D01*
X0053034Y0024655D01*
X0052975Y0024630D01*
X0052919Y0024602D01*
X0052864Y0024570D01*
X0052811Y0024535D01*
X0052761Y0024497D01*
X0052712Y0024456D01*
X0052667Y0024412D01*
X0052624Y0024365D01*
X0052585Y0024316D01*
X0052548Y0024264D01*
X0052515Y0024210D01*
X0052485Y0024154D01*
X0052458Y0024097D01*
X0052435Y0024038D01*
X0052416Y0023977D01*
X0052401Y0023916D01*
X0052389Y0023854D01*
X0052381Y0023791D01*
X0052377Y0023728D01*
X0052377Y0023664D01*
X0052381Y0023601D01*
X0052389Y0023538D01*
X0052401Y0023476D01*
X0052416Y0023415D01*
X0052435Y0023354D01*
X0052458Y0023295D01*
X0052485Y0023238D01*
X0052515Y0023182D01*
X0052548Y0023128D01*
X0052585Y0023076D01*
X0052624Y0023027D01*
X0052667Y0022980D01*
X0052712Y0022936D01*
X0052761Y0022895D01*
X0052811Y0022857D01*
X0052864Y0022822D01*
X0052919Y0022790D01*
X0052975Y0022762D01*
X0053034Y0022737D01*
X0053093Y0022716D01*
X0053154Y0022699D01*
X0053216Y0022686D01*
X0053279Y0022676D01*
X0053342Y0022670D01*
X0053405Y0022668D01*
X0054433Y0022668D01*
X0050850Y0021024D02*
X0050850Y0024724D01*
X0049617Y0022668D01*
X0048383Y0024724D01*
X0048383Y0021024D01*
X0046650Y0022463D02*
X0044183Y0022463D01*
X0042604Y0023080D02*
X0042604Y0024724D01*
X0040549Y0024724D01*
X0041371Y0023080D02*
X0042604Y0023080D01*
X0041371Y0023079D02*
X0041315Y0023077D01*
X0041259Y0023071D01*
X0041204Y0023062D01*
X0041149Y0023049D01*
X0041096Y0023032D01*
X0041044Y0023011D01*
X0040993Y0022987D01*
X0040944Y0022959D01*
X0040897Y0022929D01*
X0040852Y0022895D01*
X0040810Y0022858D01*
X0040770Y0022818D01*
X0040733Y0022776D01*
X0040699Y0022731D01*
X0040669Y0022684D01*
X0040641Y0022635D01*
X0040617Y0022584D01*
X0040596Y0022532D01*
X0040579Y0022479D01*
X0040566Y0022424D01*
X0040557Y0022369D01*
X0040551Y0022313D01*
X0040549Y0022257D01*
X0040549Y0021846D01*
X0040551Y0021790D01*
X0040557Y0021734D01*
X0040566Y0021679D01*
X0040579Y0021624D01*
X0040596Y0021571D01*
X0040617Y0021519D01*
X0040641Y0021468D01*
X0040669Y0021419D01*
X0040699Y0021372D01*
X0040733Y0021327D01*
X0040770Y0021285D01*
X0040810Y0021245D01*
X0040852Y0021208D01*
X0040897Y0021174D01*
X0040944Y0021144D01*
X0040993Y0021116D01*
X0041044Y0021092D01*
X0041096Y0021071D01*
X0041149Y0021054D01*
X0041204Y0021041D01*
X0041259Y0021032D01*
X0041315Y0021026D01*
X0041371Y0021024D01*
X0042604Y0021024D01*
X0043617Y0018724D02*
X0043617Y0015024D01*
X0044644Y0015024D02*
X0042589Y0015024D01*
X0046034Y0015024D02*
X0046239Y0015024D01*
X0046239Y0015230D01*
X0046034Y0015230D01*
X0046034Y0015024D01*
X0047629Y0015024D02*
X0049684Y0015024D01*
X0048656Y0015024D02*
X0048656Y0018724D01*
X0049684Y0017902D01*
X0053114Y0017182D02*
X0053114Y0016977D01*
X0053319Y0016977D01*
X0053319Y0017182D01*
X0053114Y0017182D01*
X0053114Y0015538D02*
X0053114Y0015332D01*
X0053319Y0015332D01*
X0053319Y0015538D01*
X0053114Y0015538D01*
X0054914Y0015024D02*
X0054914Y0016874D01*
X0054916Y0016922D01*
X0054922Y0016971D01*
X0054931Y0017018D01*
X0054944Y0017065D01*
X0054961Y0017110D01*
X0054981Y0017154D01*
X0055005Y0017196D01*
X0055032Y0017237D01*
X0055062Y0017275D01*
X0055095Y0017310D01*
X0055130Y0017343D01*
X0055168Y0017373D01*
X0055209Y0017400D01*
X0055251Y0017424D01*
X0055295Y0017444D01*
X0055340Y0017461D01*
X0055387Y0017474D01*
X0055434Y0017483D01*
X0055483Y0017489D01*
X0055531Y0017491D01*
X0056559Y0017491D01*
X0056559Y0015024D01*
X0058154Y0015846D02*
X0058154Y0016668D01*
X0058156Y0016724D01*
X0058162Y0016780D01*
X0058171Y0016835D01*
X0058184Y0016890D01*
X0058201Y0016943D01*
X0058222Y0016995D01*
X0058246Y0017046D01*
X0058274Y0017095D01*
X0058304Y0017142D01*
X0058338Y0017187D01*
X0058375Y0017229D01*
X0058415Y0017269D01*
X0058457Y0017306D01*
X0058502Y0017340D01*
X0058549Y0017370D01*
X0058598Y0017398D01*
X0058649Y0017422D01*
X0058701Y0017443D01*
X0058754Y0017460D01*
X0058809Y0017473D01*
X0058864Y0017482D01*
X0058920Y0017488D01*
X0058976Y0017490D01*
X0059032Y0017488D01*
X0059088Y0017482D01*
X0059143Y0017473D01*
X0059198Y0017460D01*
X0059251Y0017443D01*
X0059303Y0017422D01*
X0059354Y0017398D01*
X0059403Y0017370D01*
X0059450Y0017340D01*
X0059495Y0017306D01*
X0059537Y0017269D01*
X0059577Y0017229D01*
X0059614Y0017187D01*
X0059648Y0017142D01*
X0059678Y0017095D01*
X0059706Y0017046D01*
X0059730Y0016995D01*
X0059751Y0016943D01*
X0059768Y0016890D01*
X0059781Y0016835D01*
X0059790Y0016780D01*
X0059796Y0016724D01*
X0059798Y0016668D01*
X0059799Y0016668D02*
X0059799Y0015846D01*
X0059798Y0015846D02*
X0059796Y0015790D01*
X0059790Y0015734D01*
X0059781Y0015679D01*
X0059768Y0015624D01*
X0059751Y0015571D01*
X0059730Y0015519D01*
X0059706Y0015468D01*
X0059678Y0015419D01*
X0059648Y0015372D01*
X0059614Y0015327D01*
X0059577Y0015285D01*
X0059537Y0015245D01*
X0059495Y0015208D01*
X0059450Y0015174D01*
X0059403Y0015144D01*
X0059354Y0015116D01*
X0059303Y0015092D01*
X0059251Y0015071D01*
X0059198Y0015054D01*
X0059143Y0015041D01*
X0059088Y0015032D01*
X0059032Y0015026D01*
X0058976Y0015024D01*
X0058920Y0015026D01*
X0058864Y0015032D01*
X0058809Y0015041D01*
X0058754Y0015054D01*
X0058701Y0015071D01*
X0058649Y0015092D01*
X0058598Y0015116D01*
X0058549Y0015144D01*
X0058502Y0015174D01*
X0058457Y0015208D01*
X0058415Y0015245D01*
X0058375Y0015285D01*
X0058338Y0015327D01*
X0058304Y0015372D01*
X0058274Y0015419D01*
X0058246Y0015468D01*
X0058222Y0015519D01*
X0058201Y0015571D01*
X0058184Y0015624D01*
X0058171Y0015679D01*
X0058162Y0015734D01*
X0058156Y0015790D01*
X0058154Y0015846D01*
X0061256Y0015024D02*
X0061256Y0017491D01*
X0061154Y0018518D02*
X0061359Y0018518D01*
X0061359Y0018724D01*
X0061154Y0018724D01*
X0061154Y0018518D01*
X0063228Y0015023D02*
X0063343Y0015027D01*
X0063458Y0015034D01*
X0063573Y0015045D01*
X0063688Y0015060D01*
X0063802Y0015079D01*
X0063915Y0015102D01*
X0064027Y0015128D01*
X0064139Y0015158D01*
X0064249Y0015192D01*
X0064358Y0015229D01*
X0063845Y0017491D02*
X0063749Y0017487D01*
X0063654Y0017480D01*
X0063559Y0017469D01*
X0063465Y0017454D01*
X0063372Y0017435D01*
X0063279Y0017413D01*
X0063187Y0017386D01*
X0063097Y0017356D01*
X0063008Y0017323D01*
X0062920Y0017285D01*
X0063844Y0017491D02*
X0063889Y0017490D01*
X0063934Y0017485D01*
X0063978Y0017476D01*
X0064021Y0017464D01*
X0064063Y0017448D01*
X0064103Y0017428D01*
X0064142Y0017405D01*
X0064178Y0017380D01*
X0064212Y0017351D01*
X0064244Y0017319D01*
X0064273Y0017285D01*
X0064299Y0017248D01*
X0064322Y0017210D01*
X0064341Y0017169D01*
X0064357Y0017127D01*
X0064370Y0017084D01*
X0064379Y0017040D01*
X0064384Y0016996D01*
X0064385Y0016951D01*
X0064382Y0016906D01*
X0064376Y0016862D01*
X0064366Y0016818D01*
X0064353Y0016776D01*
X0064336Y0016734D01*
X0064315Y0016694D01*
X0064291Y0016656D01*
X0064265Y0016621D01*
X0064235Y0016587D01*
X0064202Y0016556D01*
X0064167Y0016528D01*
X0064130Y0016503D01*
X0064091Y0016482D01*
X0064050Y0016463D01*
X0063023Y0016052D01*
X0063022Y0016052D02*
X0062981Y0016033D01*
X0062942Y0016012D01*
X0062905Y0015987D01*
X0062870Y0015959D01*
X0062837Y0015928D01*
X0062807Y0015894D01*
X0062781Y0015859D01*
X0062757Y0015821D01*
X0062736Y0015781D01*
X0062719Y0015739D01*
X0062706Y0015697D01*
X0062696Y0015653D01*
X0062690Y0015609D01*
X0062687Y0015564D01*
X0062688Y0015519D01*
X0062693Y0015475D01*
X0062702Y0015431D01*
X0062715Y0015388D01*
X0062731Y0015346D01*
X0062750Y0015305D01*
X0062773Y0015267D01*
X0062799Y0015230D01*
X0062828Y0015196D01*
X0062860Y0015164D01*
X0062894Y0015135D01*
X0062930Y0015110D01*
X0062969Y0015087D01*
X0063009Y0015067D01*
X0063051Y0015051D01*
X0063094Y0015039D01*
X0063138Y0015030D01*
X0063183Y0015025D01*
X0063228Y0015024D01*
X0060421Y0012724D02*
X0059393Y0012724D01*
X0059337Y0012722D01*
X0059281Y0012716D01*
X0059226Y0012707D01*
X0059171Y0012694D01*
X0059118Y0012677D01*
X0059066Y0012656D01*
X0059015Y0012632D01*
X0058966Y0012604D01*
X0058919Y0012574D01*
X0058874Y0012540D01*
X0058832Y0012503D01*
X0058792Y0012463D01*
X0058755Y0012421D01*
X0058721Y0012376D01*
X0058691Y0012329D01*
X0058663Y0012280D01*
X0058639Y0012229D01*
X0058618Y0012177D01*
X0058601Y0012124D01*
X0058588Y0012069D01*
X0058579Y0012014D01*
X0058573Y0011958D01*
X0058571Y0011902D01*
X0058573Y0011846D01*
X0058579Y0011790D01*
X0058588Y0011735D01*
X0058601Y0011680D01*
X0058618Y0011627D01*
X0058639Y0011575D01*
X0058663Y0011524D01*
X0058691Y0011475D01*
X0058721Y0011428D01*
X0058755Y0011383D01*
X0058792Y0011341D01*
X0058832Y0011301D01*
X0058874Y0011264D01*
X0058919Y0011230D01*
X0058966Y0011200D01*
X0059015Y0011172D01*
X0059066Y0011148D01*
X0059118Y0011127D01*
X0059171Y0011110D01*
X0059226Y0011097D01*
X0059281Y0011088D01*
X0059337Y0011082D01*
X0059393Y0011080D01*
X0060421Y0011080D01*
X0059393Y0011080D02*
X0059330Y0011078D01*
X0059267Y0011072D01*
X0059204Y0011062D01*
X0059142Y0011049D01*
X0059081Y0011032D01*
X0059022Y0011011D01*
X0058963Y0010986D01*
X0058907Y0010958D01*
X0058852Y0010926D01*
X0058799Y0010891D01*
X0058749Y0010853D01*
X0058700Y0010812D01*
X0058655Y0010768D01*
X0058612Y0010721D01*
X0058573Y0010672D01*
X0058536Y0010620D01*
X0058503Y0010566D01*
X0058473Y0010510D01*
X0058446Y0010453D01*
X0058423Y0010394D01*
X0058404Y0010333D01*
X0058389Y0010272D01*
X0058377Y0010210D01*
X0058369Y0010147D01*
X0058365Y0010084D01*
X0058365Y0010020D01*
X0058369Y0009957D01*
X0058377Y0009894D01*
X0058389Y0009832D01*
X0058404Y0009771D01*
X0058423Y0009710D01*
X0058446Y0009651D01*
X0058473Y0009594D01*
X0058503Y0009538D01*
X0058536Y0009484D01*
X0058573Y0009432D01*
X0058612Y0009383D01*
X0058655Y0009336D01*
X0058700Y0009292D01*
X0058749Y0009251D01*
X0058799Y0009213D01*
X0058852Y0009178D01*
X0058907Y0009146D01*
X0058963Y0009118D01*
X0059022Y0009093D01*
X0059081Y0009072D01*
X0059142Y0009055D01*
X0059204Y0009042D01*
X0059267Y0009032D01*
X0059330Y0009026D01*
X0059393Y0009024D01*
X0060421Y0009024D01*
X0060421Y0012724D01*
X0064022Y0011182D02*
X0064022Y0010977D01*
X0064227Y0010977D01*
X0064227Y0011182D01*
X0064022Y0011182D01*
X0065582Y0011491D02*
X0066404Y0009024D01*
X0067227Y0011491D01*
X0068582Y0010668D02*
X0068582Y0010257D01*
X0070227Y0010257D01*
X0070227Y0010668D02*
X0070227Y0009641D01*
X0070225Y0009593D01*
X0070219Y0009544D01*
X0070210Y0009497D01*
X0070197Y0009450D01*
X0070180Y0009405D01*
X0070160Y0009361D01*
X0070136Y0009319D01*
X0070109Y0009278D01*
X0070079Y0009240D01*
X0070046Y0009205D01*
X0070011Y0009172D01*
X0069973Y0009142D01*
X0069932Y0009115D01*
X0069890Y0009091D01*
X0069846Y0009071D01*
X0069801Y0009054D01*
X0069754Y0009041D01*
X0069707Y0009032D01*
X0069658Y0009026D01*
X0069610Y0009024D01*
X0068582Y0009024D01*
X0068582Y0010668D02*
X0068584Y0010724D01*
X0068590Y0010780D01*
X0068599Y0010835D01*
X0068612Y0010890D01*
X0068629Y0010943D01*
X0068650Y0010995D01*
X0068674Y0011046D01*
X0068702Y0011095D01*
X0068732Y0011142D01*
X0068766Y0011187D01*
X0068803Y0011229D01*
X0068843Y0011269D01*
X0068885Y0011306D01*
X0068930Y0011340D01*
X0068977Y0011370D01*
X0069026Y0011398D01*
X0069077Y0011422D01*
X0069129Y0011443D01*
X0069182Y0011460D01*
X0069237Y0011473D01*
X0069292Y0011482D01*
X0069348Y0011488D01*
X0069404Y0011490D01*
X0069460Y0011488D01*
X0069516Y0011482D01*
X0069571Y0011473D01*
X0069626Y0011460D01*
X0069679Y0011443D01*
X0069731Y0011422D01*
X0069782Y0011398D01*
X0069831Y0011370D01*
X0069878Y0011340D01*
X0069923Y0011306D01*
X0069965Y0011269D01*
X0070005Y0011229D01*
X0070042Y0011187D01*
X0070076Y0011142D01*
X0070106Y0011095D01*
X0070134Y0011046D01*
X0070158Y0010995D01*
X0070179Y0010943D01*
X0070196Y0010890D01*
X0070209Y0010835D01*
X0070218Y0010780D01*
X0070224Y0010724D01*
X0070226Y0010668D01*
X0071714Y0009024D02*
X0072536Y0010668D01*
X0072742Y0010668D02*
X0073770Y0010668D01*
X0072742Y0010668D02*
X0072679Y0010670D01*
X0072616Y0010676D01*
X0072553Y0010686D01*
X0072491Y0010699D01*
X0072430Y0010716D01*
X0072371Y0010737D01*
X0072312Y0010762D01*
X0072256Y0010790D01*
X0072201Y0010822D01*
X0072148Y0010857D01*
X0072098Y0010895D01*
X0072049Y0010936D01*
X0072004Y0010980D01*
X0071961Y0011027D01*
X0071922Y0011076D01*
X0071885Y0011128D01*
X0071852Y0011182D01*
X0071822Y0011238D01*
X0071795Y0011295D01*
X0071772Y0011354D01*
X0071753Y0011415D01*
X0071738Y0011476D01*
X0071726Y0011538D01*
X0071718Y0011601D01*
X0071714Y0011664D01*
X0071714Y0011728D01*
X0071718Y0011791D01*
X0071726Y0011854D01*
X0071738Y0011916D01*
X0071753Y0011977D01*
X0071772Y0012038D01*
X0071795Y0012097D01*
X0071822Y0012154D01*
X0071852Y0012210D01*
X0071885Y0012264D01*
X0071922Y0012316D01*
X0071961Y0012365D01*
X0072004Y0012412D01*
X0072049Y0012456D01*
X0072098Y0012497D01*
X0072148Y0012535D01*
X0072201Y0012570D01*
X0072256Y0012602D01*
X0072312Y0012630D01*
X0072371Y0012655D01*
X0072430Y0012676D01*
X0072491Y0012693D01*
X0072553Y0012706D01*
X0072616Y0012716D01*
X0072679Y0012722D01*
X0072742Y0012724D01*
X0073770Y0012724D01*
X0073770Y0009024D01*
X0072536Y0015024D02*
X0071303Y0018724D01*
X0069999Y0016668D02*
X0069999Y0015641D01*
X0069999Y0016257D02*
X0068354Y0016257D01*
X0068354Y0016668D01*
X0068356Y0016724D01*
X0068362Y0016780D01*
X0068371Y0016835D01*
X0068384Y0016890D01*
X0068401Y0016943D01*
X0068422Y0016995D01*
X0068446Y0017046D01*
X0068474Y0017095D01*
X0068504Y0017142D01*
X0068538Y0017187D01*
X0068575Y0017229D01*
X0068615Y0017269D01*
X0068657Y0017306D01*
X0068702Y0017340D01*
X0068749Y0017370D01*
X0068798Y0017398D01*
X0068849Y0017422D01*
X0068901Y0017443D01*
X0068954Y0017460D01*
X0069009Y0017473D01*
X0069064Y0017482D01*
X0069120Y0017488D01*
X0069176Y0017490D01*
X0069232Y0017488D01*
X0069288Y0017482D01*
X0069343Y0017473D01*
X0069398Y0017460D01*
X0069451Y0017443D01*
X0069503Y0017422D01*
X0069554Y0017398D01*
X0069603Y0017370D01*
X0069650Y0017340D01*
X0069695Y0017306D01*
X0069737Y0017269D01*
X0069777Y0017229D01*
X0069814Y0017187D01*
X0069848Y0017142D01*
X0069878Y0017095D01*
X0069906Y0017046D01*
X0069930Y0016995D01*
X0069951Y0016943D01*
X0069968Y0016890D01*
X0069981Y0016835D01*
X0069990Y0016780D01*
X0069996Y0016724D01*
X0069998Y0016668D01*
X0069999Y0015641D02*
X0069997Y0015593D01*
X0069991Y0015544D01*
X0069982Y0015497D01*
X0069969Y0015450D01*
X0069952Y0015405D01*
X0069932Y0015361D01*
X0069908Y0015319D01*
X0069881Y0015278D01*
X0069851Y0015240D01*
X0069818Y0015205D01*
X0069783Y0015172D01*
X0069745Y0015142D01*
X0069704Y0015115D01*
X0069662Y0015091D01*
X0069618Y0015071D01*
X0069573Y0015054D01*
X0069526Y0015041D01*
X0069479Y0015032D01*
X0069430Y0015026D01*
X0069382Y0015024D01*
X0068354Y0015024D01*
X0066738Y0015024D02*
X0066738Y0017491D01*
X0065505Y0017491D01*
X0065505Y0017080D01*
X0072536Y0015024D02*
X0073770Y0018724D01*
X0073770Y0021024D02*
X0073770Y0024724D01*
X0064227Y0009538D02*
X0064022Y0009538D01*
X0064022Y0009332D01*
X0064227Y0009332D01*
X0064227Y0009538D01*
X0044644Y0017902D02*
X0043617Y0018724D01*
D14*
X0099510Y0015173D02*
X0132975Y0082102D01*
X0132974Y0082103D02*
X0133119Y0082244D01*
X0133266Y0082381D01*
X0133418Y0082515D01*
X0133572Y0082645D01*
X0133729Y0082772D01*
X0133890Y0082894D01*
X0134053Y0083013D01*
X0134219Y0083127D01*
X0134388Y0083238D01*
X0134559Y0083344D01*
X0134733Y0083447D01*
X0134910Y0083545D01*
X0135088Y0083639D01*
X0135269Y0083728D01*
X0135452Y0083813D01*
X0135637Y0083894D01*
X0135824Y0083970D01*
X0136013Y0084041D01*
X0136203Y0084108D01*
X0136395Y0084171D01*
X0136589Y0084229D01*
X0136783Y0084282D01*
X0136979Y0084330D01*
X0137176Y0084373D01*
X0137375Y0084412D01*
X0137573Y0084446D01*
X0137773Y0084475D01*
X0137974Y0084500D01*
X0138174Y0084519D01*
X0138376Y0084534D01*
X0138577Y0084544D01*
X0138779Y0084548D01*
X0138981Y0084548D01*
X0139183Y0084544D01*
X0139384Y0084534D01*
X0139586Y0084519D01*
X0139786Y0084500D01*
X0139987Y0084475D01*
X0140187Y0084446D01*
X0140385Y0084412D01*
X0140584Y0084373D01*
X0140781Y0084330D01*
X0140977Y0084282D01*
X0141171Y0084229D01*
X0141365Y0084171D01*
X0141557Y0084108D01*
X0141747Y0084041D01*
X0141936Y0083970D01*
X0142123Y0083894D01*
X0142308Y0083813D01*
X0142491Y0083728D01*
X0142672Y0083639D01*
X0142850Y0083545D01*
X0143027Y0083447D01*
X0143201Y0083344D01*
X0143372Y0083238D01*
X0143541Y0083127D01*
X0143707Y0083013D01*
X0143870Y0082894D01*
X0144031Y0082772D01*
X0144188Y0082645D01*
X0144342Y0082515D01*
X0144494Y0082381D01*
X0144641Y0082244D01*
X0144786Y0082103D01*
X0144786Y0082102D02*
X0178250Y0015173D01*
X0178248Y0014983D01*
X0178241Y0014793D01*
X0178229Y0014603D01*
X0178213Y0014413D01*
X0178193Y0014224D01*
X0178167Y0014035D01*
X0178138Y0013847D01*
X0178103Y0013660D01*
X0178064Y0013474D01*
X0178021Y0013289D01*
X0177973Y0013104D01*
X0177921Y0012921D01*
X0177865Y0012740D01*
X0177804Y0012560D01*
X0177738Y0012381D01*
X0177669Y0012204D01*
X0177595Y0012028D01*
X0177517Y0011855D01*
X0177434Y0011683D01*
X0177348Y0011514D01*
X0177258Y0011346D01*
X0177163Y0011181D01*
X0177065Y0011018D01*
X0176962Y0010858D01*
X0176856Y0010700D01*
X0176746Y0010545D01*
X0176633Y0010392D01*
X0176515Y0010242D01*
X0176394Y0010096D01*
X0176270Y0009952D01*
X0176142Y0009811D01*
X0176011Y0009673D01*
X0175876Y0009538D01*
X0175738Y0009407D01*
X0175597Y0009279D01*
X0175453Y0009155D01*
X0175307Y0009034D01*
X0175157Y0008916D01*
X0175004Y0008803D01*
X0174849Y0008693D01*
X0174691Y0008587D01*
X0174531Y0008484D01*
X0174368Y0008386D01*
X0174203Y0008291D01*
X0174035Y0008201D01*
X0173866Y0008115D01*
X0173694Y0008032D01*
X0173521Y0007954D01*
X0173345Y0007880D01*
X0173168Y0007811D01*
X0172989Y0007745D01*
X0172809Y0007684D01*
X0172628Y0007628D01*
X0172445Y0007576D01*
X0172260Y0007528D01*
X0172075Y0007485D01*
X0171889Y0007446D01*
X0171702Y0007411D01*
X0171514Y0007382D01*
X0171325Y0007356D01*
X0171136Y0007336D01*
X0170946Y0007320D01*
X0170756Y0007308D01*
X0170566Y0007301D01*
X0170376Y0007299D01*
X0107384Y0007299D01*
X0107194Y0007301D01*
X0107004Y0007308D01*
X0106814Y0007320D01*
X0106624Y0007336D01*
X0106435Y0007356D01*
X0106246Y0007382D01*
X0106058Y0007411D01*
X0105871Y0007446D01*
X0105685Y0007485D01*
X0105500Y0007528D01*
X0105315Y0007576D01*
X0105132Y0007628D01*
X0104951Y0007684D01*
X0104771Y0007745D01*
X0104592Y0007811D01*
X0104415Y0007880D01*
X0104239Y0007954D01*
X0104066Y0008032D01*
X0103894Y0008115D01*
X0103725Y0008201D01*
X0103557Y0008291D01*
X0103392Y0008386D01*
X0103229Y0008484D01*
X0103069Y0008587D01*
X0102911Y0008693D01*
X0102756Y0008803D01*
X0102603Y0008916D01*
X0102453Y0009034D01*
X0102307Y0009155D01*
X0102163Y0009279D01*
X0102022Y0009407D01*
X0101884Y0009538D01*
X0101749Y0009673D01*
X0101618Y0009811D01*
X0101490Y0009952D01*
X0101366Y0010096D01*
X0101245Y0010242D01*
X0101127Y0010392D01*
X0101014Y0010545D01*
X0100904Y0010700D01*
X0100798Y0010858D01*
X0100695Y0011018D01*
X0100597Y0011181D01*
X0100502Y0011346D01*
X0100412Y0011514D01*
X0100326Y0011683D01*
X0100243Y0011855D01*
X0100165Y0012028D01*
X0100091Y0012204D01*
X0100022Y0012381D01*
X0099956Y0012560D01*
X0099895Y0012740D01*
X0099839Y0012921D01*
X0099787Y0013104D01*
X0099739Y0013289D01*
X0099696Y0013474D01*
X0099657Y0013660D01*
X0099622Y0013847D01*
X0099593Y0014035D01*
X0099567Y0014224D01*
X0099547Y0014413D01*
X0099531Y0014603D01*
X0099519Y0014793D01*
X0099512Y0014983D01*
X0099510Y0015173D01*
D15*
X0129757Y0019435D02*
X0132170Y0019435D01*
X0132170Y0021849D01*
X0129757Y0021849D01*
X0129757Y0019435D01*
X0130963Y0033917D02*
X0130963Y0062880D01*
M02*
