%
M48
M72
T01C0.03200
T02C0.03543
T03C0.03937
T04C0.04000
T05C0.04921
T06C0.05118
T07C0.05315
T08C0.15748
%
T01
X204746Y109268
X214746Y109268
T02
X51124Y36472
X51124Y56157
T03
X74392Y36157
X74392Y55843
X190140Y76315
X190140Y15685
T04
X209589Y47063
X219589Y47063
X229865Y17496
X219865Y17496
X214707Y78559
X234707Y78559
T05
X17501Y84071
X73477Y112963
T06
X17935Y43756
X17935Y63441
T07
X73644Y94071
X150416Y94071
T08
X18014Y16748
X18014Y110252
X236518Y110252
X238487Y47063
M30
